<?xml version="1.0" standalone="no"?>
<!DOCTYPE svg PUBLIC "-//W3C//DTD SVG 20010904//EN"
 "http://www.w3.org/TR/2001/REC-SVG-20010904/DTD/svg10.dtd">
<svg version="1.0" xmlns="http://www.w3.org/2000/svg"
 width="500.000000pt" height="500.000000pt" viewBox="0 0 500.000000 500.000000"
 preserveAspectRatio="xMidYMid meet">
<metadata>
Created by potrace 1.14, written by Peter Selinger 2001-2017
</metadata>
<g transform="translate(0.000000,500.000000) scale(0.100000,-0.100000)"
fill="#000000" stroke="none">
<path d="M4440 4664 c-193 -144 -357 -265 -540 -400 -96 -70 -179 -132 -185
-136 -5 -5 -39 -30 -75 -56 -36 -25 -69 -52 -73 -59 -4 -7 -14 -13 -22 -13 -7
0 -15 -4 -17 -8 -1 -5 -113 -91 -248 -192 -135 -101 -246 -187 -248 -192 -2
-4 -8 -8 -13 -8 -5 0 -17 -7 -26 -15 -95 -78 -418 -312 -462 -334 -58 -29 -72
-30 -101 -2 -9 9 -48 38 -86 65 -68 49 -970 723 -1009 755 -12 9 -43 32 -70
50 -28 19 -52 38 -55 41 -3 3 -39 30 -80 60 -41 30 -80 59 -86 65 -6 5 -22 17
-34 25 -13 8 -35 24 -49 35 -14 12 -111 83 -216 159 -104 76 -219 161 -255
188 -36 27 -72 47 -80 46 -23 -5 -23 -43 0 -106 12 -31 44 -122 71 -202 28
-80 54 -154 59 -165 10 -24 51 -136 54 -150 2 -5 8 -21 14 -35 14 -31 166
-463 222 -630 23 -69 46 -134 51 -145 5 -11 22 -60 38 -110 17 -49 62 -182
101 -295 39 -113 73 -213 75 -222 7 -30 47 -76 76 -88 30 -13 38 -13 249 -11
74 0 146 -1 160 -3 14 -2 34 -4 46 -5 17 -1 30 -25 74 -143 89 -241 111 -302
120 -328 5 -14 25 -70 45 -125 20 -55 40 -111 45 -125 11 -34 93 -271 185
-535 42 -121 85 -249 97 -285 11 -36 24 -74 29 -85 8 -18 56 -157 198 -570 33
-96 41 -111 65 -120 37 -13 51 6 72 104 9 42 25 99 34 126 50 139 84 233 93
255 6 14 11 27 11 30 2 8 47 133 56 155 5 11 25 65 45 120 20 55 39 107 42
115 4 8 7 17 8 20 1 3 5 14 9 25 4 11 16 43 26 70 10 28 21 59 26 70 4 11 8
25 10 30 2 6 28 80 58 165 135 383 246 699 333 950 15 43 44 79 67 81 6 1 108
2 226 3 187 2 219 4 242 19 14 10 29 28 32 40 3 12 6 25 7 29 1 4 19 58 40
120 22 62 41 118 43 123 1 6 8 24 15 40 7 17 21 55 31 85 11 30 29 82 41 115
12 33 45 130 75 215 77 228 220 625 233 649 7 11 10 21 7 21 -3 0 2 17 11 38
18 43 164 438 195 527 11 33 24 64 29 70 13 13 11 59 -3 73 -22 22 -42 12
-158 -74z"/>
</g>
</svg>
