<?xml version="1.0" encoding="utf-8"?>
<svg version="1.1" id="Layer_1" x="0px" y="0px" viewBox="0 0 512 512" style="enable-background:new 0 0 512 512;" xmlns="http://www.w3.org/2000/svg">
  <style type="text/css">
	.st0{fill:#2B374C;}
	.st1{fill:#F4BF2A;}
</style>
  <g>
    <circle class="st0" cx="255.7" cy="256.5" r="168"/>
    <path class="st1" d="M466,256.5c0-42.3-13.2-84-36.8-119.4V85.7c0-1.4-1.4-2.8-2.8-2.8h-51.4c-71.5-49.3-165.9-49.3-237.4,0H86.3 c-0.7,0-1.4,0-2.1,0.7c-0.7,0.7-0.7,1.4-0.7,2.1v50.7c-50,72.2-50,167.3,0,239.5v50.7c0,1.4,1.4,2.8,2.8,2.8h51.4 c72.2,49.3,166.6,48.6,238.8-0.7h50.7c1.4,0,2.8-1.4,2.8-3.5l0,0v-50.7C453.5,340.5,466,298.9,466,256.5z M73.8,256.5 c0-100.7,81.2-181.9,181.9-181.9s181.9,81.2,181.9,181.9s-81.2,181.9-181.9,181.9l0,0l0,0C155,438.4,73.8,357.2,73.8,256.5z"/>
  </g>
  <g class="" style="" transform="matrix(0.420708, 0, 0, 0.420708, 148.187469, 151.202072)">
    <path d="M313.732 3.545l-60.166 157.62-58.42-48.454 9.838 78.962c-47.68-32.87-93.904-83.845-135.062-172.408H18.57v119.3c41.344 41.93 97.152 66.44 156.826 90.963L23.976 287.33l132.655 9.65-55.253 85.65 116.94-57.478L224.8 462.93l66.706-144.633 65.75 84.558-5.15-83.675c51.68 38.82 96.87 92.806 126.013 175.474h15.84v-149.33c-33.083-36.708-68.22-57.787-104.755-73.648l66.895-29.57-91.668-15.907 113.02-117.993-152.67 47.258-11.05-151.92zM258.6 198.807c5.412-.05 11.044.265 16.832.992 23.154 2.905 44.133 11.763 58.836 23.202 14.702 11.44 22.656 25.008 22.656 37.295 0 12.287-7.196 22.387-21.276 29.807-14.08 7.42-34.734 11.078-57.886 8.17-23.154-2.905-44.132-11.76-58.834-23.198-14.703-11.44-22.658-25.007-22.658-37.295 0-.665.03-1.32.072-1.973l42.642 11.113-8.52 12.11 87.563 13.265-38.8-26.672 15.82-14.785-68.963-26.606c9.236-3.335 20.317-5.312 32.516-5.425z" fill="#fff" fill-opacity="1"/>
  </g>
</svg>