<?xml version="1.0" encoding="utf-8"?>
<svg version="1.1" id="Layer_1" x="0px" y="0px" viewBox="0 0 512 512" style="enable-background:new 0 0 512 512;" xmlns="http://www.w3.org/2000/svg">
  <style type="text/css">
	.st0{fill:#2B374C;}
	.st1{fill:#F4BF2A;}
</style>
  <g>
    <circle class="st0" cx="255.7" cy="256.5" r="168"/>
    <path class="st1" d="M466,256.5c0-42.3-13.2-84-36.8-119.4V85.7c0-1.4-1.4-2.8-2.8-2.8h-51.4c-71.5-49.3-165.9-49.3-237.4,0H86.3 c-0.7,0-1.4,0-2.1,0.7c-0.7,0.7-0.7,1.4-0.7,2.1v50.7c-50,72.2-50,167.3,0,239.5v50.7c0,1.4,1.4,2.8,2.8,2.8h51.4 c72.2,49.3,166.6,48.6,238.8-0.7h50.7c1.4,0,2.8-1.4,2.8-3.5l0,0v-50.7C453.5,340.5,466,298.9,466,256.5z M73.8,256.5 c0-100.7,81.2-181.9,181.9-181.9s181.9,81.2,181.9,181.9s-81.2,181.9-181.9,181.9l0,0l0,0C155,438.4,73.8,357.2,73.8,256.5z"/>
  </g>
  <g class="" style="" transform="matrix(0.445931, 0, 0, 0.445931, 141.84166, 141.84166)">
    <g class="" style="" transform="matrix(1.014778, 0, 0, 1.014778, -5.252213, -15.168198)">
      <g class="" style="" transform="matrix(0.93712, 0, 0, 0.93712, 17.66202, 27.785961)">
        <path d="M265.22 19.688v57.75c91.033 4.56 164.143 77.686 168.717 168.718h57.75c-4.635-123.12-103.345-221.85-226.468-226.47zm-18.69.03C123.67 24.65 24.717 123.244 20.063 246.157H78.44C83 155.333 155.786 82.33 246.53 77.47V19.72zm9.69 107.22c-32.23 0-61.768 11.79-84.408 31.312l22.47 22.47c12.306-10.246 27.204-17.487 43.562-20.626l18.78 70.53 18.75-70.374c15.887 3.182 30.37 10.232 42.407 20.156l22.345-22.344c-22.465-19.41-51.782-31.125-83.906-31.125zm97.124 44.343L331 193.626c9.996 12.136 17.072 26.77 20.22 42.813l-70.095 18.687 70.125 18.656c-3.15 16.247-10.31 31.112-20.438 43.44l22.344 22.342c19.513-22.637 31.312-52.154 31.313-84.375 0-32.124-11.716-61.44-31.126-83.906zm-194.75.157c-19.478 22.446-31.28 51.697-31.28 83.75 0 32.15 11.885 61.6 31.467 84.22l22.532-22.532c-9.933-12.202-16.96-26.866-20.093-42.875l70.936-18.875-70.906-18.906c3.136-15.81 10.098-30.235 19.906-42.25l-22.562-22.532zm-138.5 93.407C25.044 387.51 123.868 486.332 246.53 491.28V432.94c-90.544-4.852-163.21-77.547-168.06-168.094H20.093zm413.812 0C429.044 355.6 356.056 428.42 265.22 432.97v58.342c122.924-4.638 221.507-103.596 226.436-226.468h-57.75zm-177.28 14.75l-18.97 71.28c-16.208-3.188-30.995-10.455-43.22-20.687L172 352.625c22.618 19.582 52.072 31.47 84.22 31.47 32.05 0 61.304-11.803 83.75-31.283l-22.345-22.343c-11.955 9.914-26.296 16.98-42.03 20.217l-18.97-71.093z" fill="#fff" fill-opacity="1"/>
      </g>
    </g>
  </g>
</svg>