<?xml version="1.0" encoding="utf-8"?>
<svg version="1.1" id="Layer_1" x="0px" y="0px" viewBox="0 0 512 512" style="enable-background:new 0 0 512 512;" xmlns="http://www.w3.org/2000/svg">
  <style type="text/css">
	.st0{fill:#2B374C;}
	.st1{fill:#F4BF2A;}
</style>
  <g>
    <circle class="st0" cx="255.7" cy="256.5" r="168"/>
    <path class="st1" d="M466,256.5c0-42.3-13.2-84-36.8-119.4V85.7c0-1.4-1.4-2.8-2.8-2.8h-51.4c-71.5-49.3-165.9-49.3-237.4,0H86.3 c-0.7,0-1.4,0-2.1,0.7c-0.7,0.7-0.7,1.4-0.7,2.1v50.7c-50,72.2-50,167.3,0,239.5v50.7c0,1.4,1.4,2.8,2.8,2.8h51.4 c72.2,49.3,166.6,48.6,238.8-0.7h50.7c1.4,0,2.8-1.4,2.8-3.5l0,0v-50.7C453.5,340.5,466,298.9,466,256.5z M73.8,256.5 c0-100.7,81.2-181.9,181.9-181.9s181.9,81.2,181.9,181.9s-81.2,181.9-181.9,181.9l0,0l0,0C155,438.4,73.8,357.2,73.8,256.5z"/>
  </g>
  <g class="" style="" transform="matrix(0.455125, 0, 0, 0.455125, 138.734314, 143.819656)">
    <path d="M129.656 21.188L37.936 79.78c3.54 26.805 8.915 53.547 16.127 80.126L240.72 39.594l-19.282-12.5c-31.28-.885-62.204-2.842-91.782-5.907zm253.47.625c-40.51 3.975-83.496 5.938-126.47 5.843l204.625 132.72c7.108-25.89 12.487-51.92 16.095-78.032l-94.25-60.53zM257.937 50.75L59.468 178.656c8.025 26.32 17.865 52.456 29.532 78.313l243.25-158-74.313-48.22zm91.468 59.344l-74.562 48.437 151.28 98.782c11.714-25.803 21.592-51.91 29.688-78.187l-106.406-69.03zm-91.687 59.562L97 274.062c12.202 25.17 26.14 50.064 41.844 74.563l196.094-128.53-77.22-50.44zM352 231.22l-77.53 50.843 101.405 67.187c15.822-24.6 29.895-49.584 42.22-74.875L352 231.22zm-94.53 61.968l-108.345 71.03c13.564 20.062 28.326 39.847 44.28 59.313l132.032-85.28-67.968-45.063zm84.967 56.312L274.5 393.406l47.03 30.375c15.845-19.342 30.513-38.993 44.033-58.936L342.438 349.5zm-84.968 54.875L205.5 437.97c16.233 18.933 33.614 37.54 52.156 55.78 18.385-18.152 35.637-36.678 51.78-55.53l-52.092-33.626.125-.22z" fill="#fff" fill-opacity="1"/>
  </g>
</svg>