<?xml version="1.0" encoding="utf-8"?>
<svg version="1.1" id="Layer_1" x="0px" y="0px" viewBox="0 0 512 512" style="enable-background:new 0 0 512 512;" xmlns="http://www.w3.org/2000/svg">
  <style type="text/css">
	.st0{fill:#2B374C;}
	.st1{fill:#F4BF2A;}
</style>
  <g>
    <circle class="st0" cx="255.7" cy="256.5" r="168"/>
    <path class="st1" d="M466,256.5c0-42.3-13.2-84-36.8-119.4V85.7c0-1.4-1.4-2.8-2.8-2.8h-51.4c-71.5-49.3-165.9-49.3-237.4,0H86.3 c-0.7,0-1.4,0-2.1,0.7c-0.7,0.7-0.7,1.4-0.7,2.1v50.7c-50,72.2-50,167.3,0,239.5v50.7c0,1.4,1.4,2.8,2.8,2.8h51.4 c72.2,49.3,166.6,48.6,238.8-0.7h50.7c1.4,0,2.8-1.4,2.8-3.5l0,0v-50.7C453.5,340.5,466,298.9,466,256.5z M73.8,256.5 c0-100.7,81.2-181.9,181.9-181.9s181.9,81.2,181.9,181.9s-81.2,181.9-181.9,181.9l0,0l0,0C155,438.4,73.8,357.2,73.8,256.5z"/>
  </g>
  <g class="" style="" transform="matrix(0.419889, 0, 0, 0.419889, 148.953506, 149.257324)">
    <path d="M396.082 17.326c-.166-.025-1.922.108-4.977.108-21.975 0-42.158 18.904-49.437 46.595l75.713 12.61-78.526 13.085c.564 16.248 5.55 30.99 13.062 42.367l54.39 9.603-41.277 7.29.484.607-15.91 2.47c-15.262 2.366-25.866 9.63-34.46 21.165-2.534 3.4-4.848 7.198-6.962 11.328l90.798 13.2-100.976 14.684c-.576 2.25-1.118 4.542-1.627 6.874-1.662 7.613-2.953 15.622-3.982 23.854l115.275 14.107-117.81 14.418c-.525 9.083-.84 18.236-1.022 27.31l114.07 16.407-113.304 16.3h40.826l2.144 32.532 82.026 11.38-80.54 11.173 2.512 38.14 75.582 10.897-74.158 10.69 2.938 44.59h96.306l11.875-159.403h43.983c-.228-36.033-1.914-77.32-10.137-111.194-4.462-18.384-10.84-34.42-19.314-46.063-8.472-11.642-18.583-18.958-32.248-21.53l-15.59-2.933 10.124-12.213c10.435-12.587 17.49-30.688 17.49-51.127 0-37.056-22.084-66.04-47.127-69.295l-.106-.013-.108-.016zm-53.535 5.055L16.785 45.968l304.93 22.082c3.073-17.672 10.43-33.57 20.832-45.67zm-22.402 62.114L16.783 106.46l312.28 22.612c-5.686-12.618-8.96-27.047-8.96-42.422 0-.722.027-1.437.042-2.156zm-2.612 60.688L16.783 166.96l269.96 19.546c3.583-8.906 7.975-17.144 13.415-24.445 4.868-6.532 10.676-12.254 17.375-16.878zm-37.79 63.228l-262.96 19.04L273.19 246.02c1.18-10.497 2.77-20.808 4.927-30.69.51-2.33 1.05-4.635 1.625-6.918zm-8.327 57.803L16.783 284.65l253.225 18.336c.18-12.057.585-24.438 1.408-36.773zm-1.562 60.605l-253.07 18.325 297.22 21.52-1.072-16.267H269.86v-9.343c0-4.62-.01-9.38-.006-14.235zm45.294 57.22L16.783 405.64l301.227 21.81-2.862-43.413zm3.97 60.202L16.782 466.13l305.233 22.102-2.9-43.992z" fill="#fff" fill-opacity="1"/>
  </g>
</svg>