<?xml version="1.0" encoding="utf-8"?>
<svg version="1.1" id="Layer_1" x="0px" y="0px" viewBox="0 0 512 512" style="enable-background:new 0 0 512 512;" xmlns="http://www.w3.org/2000/svg">
  <style type="text/css">
	.st0{fill:#2B374C;}
	.st1{fill:#F4BF2A;}
</style>
  <g>
    <circle class="st0" cx="255.7" cy="256.5" r="168"/>
    <path class="st1" d="M466,256.5c0-42.3-13.2-84-36.8-119.4V85.7c0-1.4-1.4-2.8-2.8-2.8h-51.4c-71.5-49.3-165.9-49.3-237.4,0H86.3 c-0.7,0-1.4,0-2.1,0.7c-0.7,0.7-0.7,1.4-0.7,2.1v50.7c-50,72.2-50,167.3,0,239.5v50.7c0,1.4,1.4,2.8,2.8,2.8h51.4 c72.2,49.3,166.6,48.6,238.8-0.7h50.7c1.4,0,2.8-1.4,2.8-3.5l0,0v-50.7C453.5,340.5,466,298.9,466,256.5z M73.8,256.5 c0-100.7,81.2-181.9,181.9-181.9s181.9,81.2,181.9,181.9s-81.2,181.9-181.9,181.9l0,0l0,0C155,438.4,73.8,357.2,73.8,256.5z"/>
  </g>
  <g class="" style="" transform="matrix(0.445931, 0, 0, 0.445931, 141.84166, 141.84166)">
    <g class="" style="" transform="matrix(1.014778, 0, 0, 1.014778, -5.252213, -15.168198)">
      <g class="" style="" transform="matrix(0.93712, 0, 0, 0.93712, 17.66202, 27.785961)"/>
      <g class="" style="" transform="matrix(0.942285, 0, 0, 0.942285, 17.227129, 22.714642)"/>
    </g>
  </g>
  <path d="M 290.194 155.924 C 279.832 155.964 269.481 158.138 260.15 162.531 C 250.654 167.003 241.923 176.991 235.47 188.982 C 229.016 200.972 224.823 214.883 223.763 226.504 C 220.597 261.22 201.809 292.185 156.21 333.284 L 156.13 342.348 C 186.002 318.238 207.437 294.219 222.826 270.276 L 222.853 270.289 C 218.924 284.018 213.288 297 204.422 307.481 C 191.116 322.526 175.155 337.542 156.026 352.521 L 156 356.009 L 166.569 356.036 L 166.768 356.036 L 167.309 355.547 C 177.627 348.572 187.86 342.235 198.001 338.002 L 198.08 338.081 L 178.448 356.049 L 190.682 356.076 C 211.133 338.452 230.726 317.78 245.486 298.154 C 259.686 279.273 269.171 261.239 271.144 248.753 C 270.608 247.773 270.065 246.797 269.599 245.754 C 261.636 227.972 267.792 204.987 286.602 196.684 C 300.44 190.575 318.25 195.346 324.839 209.936 C 324.902 210.077 324.976 210.204 325.037 210.346 C 330.661 220.519 327.648 231.266 321.086 236.546 C 317.761 239.222 313.289 240.575 308.931 239.32 C 304.572 238.066 300.88 234.343 298.573 228.698 L 305.879 225.712 C 307.566 229.84 309.543 231.272 311.111 231.724 C 312.678 232.175 314.394 231.787 316.131 230.389 C 319.605 227.594 322.17 221.126 317.994 213.887 L 317.876 213.689 L 317.783 213.477 C 313.259 202.984 300.042 199.384 289.786 203.912 C 275.384 210.269 270.509 228.455 276.812 242.531 C 285.491 261.914 309.777 268.396 328.551 259.813 C 353.984 248.186 362.429 216.127 350.998 191.4 C 340.54 168.78 316.579 156.527 292.27 155.952 C 291.579 155.935 290.886 155.923 290.195 155.926 L 290.194 155.924 Z M 279.308 167.221 C 280.677 167.236 281.998 167.368 283.284 167.604 C 287.657 168.407 291.717 170.459 295.559 173.206 C 282.612 170.907 270.9 175.156 261.406 183.684 C 251.919 192.204 244.85 205.073 242.049 219.502 C 240.081 214.7 239.02 210.428 239.223 206.091 C 239.348 203.409 239.948 200.613 241.244 197.543 C 245.088 189.926 250.136 183.191 256.134 177.803 C 259.442 174.833 263.064 172.277 266.928 170.233 C 271.55 168.03 275.604 167.181 279.308 167.221 Z M 331.284 193.566 C 340.832 199.133 345.814 211.264 345.21 223.439 C 344.971 228.257 343.744 233.153 341.445 237.655 C 336.169 245.661 326.423 248.44 320.318 246.481 L 320.279 246.375 C 332.093 241.993 336.844 232.686 337.323 223.041 C 337.375 221.984 337.371 220.93 337.31 219.884 C 337.922 214.256 337.136 207.71 334.997 201.519 C 334.049 198.773 332.82 196.069 331.258 193.604 L 331.285 193.565 L 331.284 193.566 Z M 273.97 194.121 C 265.104 202.299 261.537 209.025 259.912 215.789 C 258.285 222.563 258.733 229.673 258.684 238.144 C 258.625 248.202 257.602 259.935 250.889 274.372 C 250.887 274.377 250.878 274.38 250.876 274.385 C 241.957 285.696 231.734 296.475 221.743 302.87 L 221.716 302.858 C 248.857 272.609 250.689 254.325 250.783 238.091 C 250.83 229.974 250.253 222.196 252.236 213.939 C 252.477 212.937 252.758 211.934 253.082 210.927 L 253.095 210.927 C 256.518 203.724 260.101 199.91 263.863 197.583 C 266.899 195.705 270.22 194.751 273.97 194.121 Z" fill="#fff" fill-opacity="1"/>
</svg>