<?xml version="1.0" encoding="utf-8"?>
<svg version="1.1" id="Layer_1" x="0px" y="0px" viewBox="0 0 512 512" style="enable-background:new 0 0 512 512;" xmlns="http://www.w3.org/2000/svg">
  <style type="text/css">
	.st0{fill:#2B374C;}
	.st1{fill:#F4BF2A;}
</style>
  <g>
    <circle class="st0" cx="255.7" cy="256.5" r="168"/>
    <path class="st1" d="M466,256.5c0-42.3-13.2-84-36.8-119.4V85.7c0-1.4-1.4-2.8-2.8-2.8h-51.4c-71.5-49.3-165.9-49.3-237.4,0H86.3 c-0.7,0-1.4,0-2.1,0.7c-0.7,0.7-0.7,1.4-0.7,2.1v50.7c-50,72.2-50,167.3,0,239.5v50.7c0,1.4,1.4,2.8,2.8,2.8h51.4 c72.2,49.3,166.6,48.6,238.8-0.7h50.7c1.4,0,2.8-1.4,2.8-3.5l0,0v-50.7C453.5,340.5,466,298.9,466,256.5z M73.8,256.5 c0-100.7,81.2-181.9,181.9-181.9s181.9,81.2,181.9,181.9s-81.2,181.9-181.9,181.9l0,0l0,0C155,438.4,73.8,357.2,73.8,256.5z"/>
  </g>
  <g class="" style="" transform="matrix(0.445931, 0, 0, 0.445931, 141.84166, 141.84166)">
    <g class="" style="" transform="matrix(1.014778, 0, 0, 1.014778, -5.252213, -15.168198)">
      <g class="" style="" transform="matrix(0.93712, 0, 0, 0.93712, 17.66202, 27.785961)"/>
      <g class="" style="" transform="matrix(0.942285, 0, 0, 0.942285, 17.227129, 22.714642)">
        <g class="" style="" transform="matrix(0.992337, 0, 0, 0.992337, -2.344673, 8.217331)">
          <path d="M258.594 13.75l-8.03 13.438-80.69 135.187-8.436 14.125H220.435v208.75l-69.092-86.188 36.25-29 12.875-10.28-15.407-5.75-147.47-55.188-14.656-5.47 2.125 15.5L46.5 364.845l2.25 16.28 12.844-10.28 30.062-24.03 116.75 145.842h32.656l-138.156-178.78-40.125 32.093-7.405-53.94c6.306 5.892 14.752 9.5 24.063 9.5 19.49 0 35.312-15.79 35.312-35.28 0-7.974-2.665-15.34-7.125-21.25l55.438 20.75-45.563 36.47L248.72 472V157.812h-54.345l29.28-49.03c1.594 18.015 16.697 32.124 35.126 32.124 18.23 0 33.26-13.796 35.126-31.53l28.906 48.436h-55.406v317l133.5-172.718-45.437-36.344 53.124-19.875c-4.073 5.754-6.47 12.79-6.47 20.375 0 19.49 15.792 35.28 35.282 35.28 10.322 0 19.61-4.434 26.063-11.5l-7.69 55.94-40.28-32.22-138.25 178.906h32.78L426.814 346.75l30.125 24.094 12.875 10.28 2.218-16.28 21.44-155.97 2.124-15.5-14.656 5.47L333.5 254.03l-15.406 5.75 12.844 10.283L367.125 299l-70.438 87.875V176.5h59.033l-8.44-14.125-80.655-135.188-8.03-13.437z" fill="#fff" fill-opacity="1"/>
        </g>
      </g>
    </g>
  </g>
</svg>