<?xml version="1.0" encoding="utf-8"?>
<svg version="1.1" id="Layer_1" x="0px" y="0px" viewBox="0 0 512 512" style="enable-background:new 0 0 512 512;" xmlns="http://www.w3.org/2000/svg">
  <style type="text/css">
	.st0{fill:#2B374C;}
	.st1{fill:#F4BF2A;}
</style>
  <g>
    <circle class="st0" cx="255.7" cy="256.5" r="168"/>
    <path class="st1" d="M466,256.5c0-42.3-13.2-84-36.8-119.4V85.7c0-1.4-1.4-2.8-2.8-2.8h-51.4c-71.5-49.3-165.9-49.3-237.4,0H86.3 c-0.7,0-1.4,0-2.1,0.7c-0.7,0.7-0.7,1.4-0.7,2.1v50.7c-50,72.2-50,167.3,0,239.5v50.7c0,1.4,1.4,2.8,2.8,2.8h51.4 c72.2,49.3,166.6,48.6,238.8-0.7h50.7c1.4,0,2.8-1.4,2.8-3.5l0,0v-50.7C453.5,340.5,466,298.9,466,256.5z M73.8,256.5 c0-100.7,81.2-181.9,181.9-181.9s181.9,81.2,181.9,181.9s-81.2,181.9-181.9,181.9l0,0l0,0C155,438.4,73.8,357.2,73.8,256.5z"/>
  </g>
  <g class="" style="" transform="matrix(0.445931, 0, 0, 0.445931, 141.84166, 141.84166)">
    <g class="" style="" transform="matrix(1.014778, 0, 0, 1.014778, -5.252213, -15.168198)">
      <g class="" style="" transform="matrix(0.93712, 0, 0, 0.93712, 17.66202, 27.785961)"/>
      <g class="" style="" transform="matrix(0.942285, 0, 0, 0.942285, 17.227129, 22.714642)">
        <path d="M 228.318 39.06 C 213.296 54.37 212.424 61.89 204.845 82.963 C 207.535 92.103 209.999 99.89 213.993 108.08 C 219.151 108.363 224.758 108.55 229.335 108.51 C 223.225 98.302 221.059 89.19 224.602 73.236 C 228.902 92.286 237.449 103.229 245.805 107.568 C 248.837 107.234 251.762 106.854 254.581 106.422 C 248.326 96.085 246.087 86.952 249.667 70.834 C 253.564 88.104 260.954 98.71 268.527 103.774 C 273.185 102.731 277.81 101.531 282.454 100.24 C 276.937 90.55 275.094 81.548 278.484 66.283 C 281.841 81.159 287.791 91.093 294.216 96.799 C 299.311 95.229 303.512 93.901 308.068 92.452 C 307.383 86.67 307.652 80.265 309.132 73.337 L 311.015 64.537 L 328.618 68.297 L 326.738 77.101 C 323.102 94.109 328.062 101.521 334.044 105.767 C 340.024 110.011 348.734 109.227 350.074 108.367 L 357.65 103.507 L 367.37 118.657 C 363.513 120.997 359.47 124.097 355.548 125.717 C 374.198 153.395 387.731 187.182 380.304 219.267 C 377.939 228.741 374.274 237.51 368.589 244.253 C 381.314 256.383 389.804 266.279 399.621 278.753 C 395.908 276.366 392.035 273.909 387.929 271.383 C 376.532 264.373 364.097 257.169 352.949 251.581 C 336.937 243.781 321.582 233.376 305.219 231.058 C 282.667 228.091 258.949 235.855 231.899 252.118 C 239.771 260.838 245.181 267.592 252.211 276.406 C 245.231 272.068 237.559 267.336 229.051 262.176 C 196.497 244.696 163.661 213.949 128.613 212.186 C 98.053 211.094 68.661 227.141 38.936 250.754 L 34.486 254.293 L 34.486 494 L 66.449 494 C 111.633 476.563 146.736 436.346 163.479 399.48 L 163.729 398.916 L 164.054 398.396 C 173.517 383.144 175.202 368.708 180.844 353.664 C 186.489 338.62 197.751 323.946 222.728 314.908 C 227.081 312.748 227.798 313.493 231.361 316.303 C 261.829 340.313 288.651 348.323 314.601 348.653 C 347.211 347.096 373.043 338.771 400.283 329.273 C 396.317 332.801 391.513 336.483 386.297 340.035 C 370.974 350.471 352.08 359.963 339.993 364.835 C 325.277 366.841 311.633 367.251 298.026 365.451 C 288.066 377.541 272.452 385.809 260.676 392.124 C 324.596 406.147 376.556 393.034 428.062 369.228 C 418.54 367.411 409.054 365.536 400.068 363.808 C 431.702 359.386 465.052 360.042 494.773 360.278 C 498.857 360.258 501.986 359.825 503.473 359.392 C 517.64 308.32 499.378 261.499 469.179 214.176 C 438.916 166.751 396.999 120.069 367.283 71.136 C 346.183 53.879 318.683 39.681 289.761 24.961 C 269.375 29.211 248.735 34.297 228.318 39.061 L 228.318 39.06 Z M 313.703 109.55 C 302.025 113.15 289.993 116.975 279.851 119.562 C 282.378 124.492 283.586 130.226 283.246 135.764 C 294.274 136.641 304.328 133.746 312.211 129.408 C 317.056 126.742 320.951 123.36 323.625 120.448 C 319.771 117.713 316.365 114.038 313.702 109.548 L 313.703 109.55 Z M 259.49 124.248 C 247.73 125.391 234.9 126.61 224.43 126.484 C 226.82 131.256 228.21 138.551 232.94 141.324 C 244.12 142.488 253.54 143.321 262.85 139.578 C 268.285 136.364 264.668 124.52 259.49 124.248 Z M 224.51 333.58 C 206.917 340.813 201.924 348.72 197.697 359.986 C 193.699 370.646 191.47 385.062 183.217 401 C 215.507 394.62 252.842 379.77 277.069 360.912 C 260.052 355.814 242.516 347.06 224.512 333.58 L 224.51 333.58 Z M 233.828 404.965 C 215.105 412.202 192.992 421.109 174.132 419.027 C 160.26 446.68 140.498 474.03 108.248 494 L 192.928 494 C 214.492 464.202 230.995 437.425 233.828 404.965 Z" fill="#fff" fill-opacity="1"/>
      </g>
    </g>
  </g>
</svg>