<?xml version="1.0" encoding="utf-8"?>
<svg version="1.1" id="Layer_1" x="0px" y="0px" viewBox="0 0 512 512" style="enable-background:new 0 0 512 512;" xmlns="http://www.w3.org/2000/svg">
  <style type="text/css">
	.st0{fill:#2B374C;}
	.st1{fill:#F4BF2A;}
</style>
  <g>
    <circle class="st0" cx="255.7" cy="256.5" r="168"/>
    <path class="st1" d="M466,256.5c0-42.3-13.2-84-36.8-119.4V85.7c0-1.4-1.4-2.8-2.8-2.8h-51.4c-71.5-49.3-165.9-49.3-237.4,0H86.3 c-0.7,0-1.4,0-2.1,0.7c-0.7,0.7-0.7,1.4-0.7,2.1v50.7c-50,72.2-50,167.3,0,239.5v50.7c0,1.4,1.4,2.8,2.8,2.8h51.4 c72.2,49.3,166.6,48.6,238.8-0.7h50.7c1.4,0,2.8-1.4,2.8-3.5l0,0v-50.7C453.5,340.5,466,298.9,466,256.5z M73.8,256.5 c0-100.7,81.2-181.9,181.9-181.9s181.9,81.2,181.9,181.9s-81.2,181.9-181.9,181.9l0,0l0,0C155,438.4,73.8,357.2,73.8,256.5z"/>
  </g>
  <g class="" style="" transform="matrix(0.445931, 0, 0, 0.445931, 141.84166, 141.84166)">
    <g class="" style="" transform="matrix(1.014778, 0, 0, 1.014778, -5.252213, -15.168198)">
      <g class="" style="" transform="matrix(0.93712, 0, 0, 0.93712, 17.66202, 27.785961)"/>
      <g class="" style="" transform="matrix(0.942285, 0, 0, 0.942285, 17.227129, 22.714642)">
        <g class="" style="" transform="matrix(0.992337, 0, 0, 0.992337, -2.344673, 8.217331)"/>
      </g>
    </g>
  </g>
  <g class="" style="" transform="matrix(0.43147, 0, 0, 0.43147, 144.768753, 145.415527)"/>
  <g class="" style="" transform="matrix(0.467391, 0, 0, 0.467391, 136.3479, 136.3479)">
    <path d="M305.975 298.814l22.704 2.383V486l-62.712-66.965V312.499l18.214 8.895zm-99.95 0l-22.716 2.383V486l62.711-66.965V312.499l-18.213 8.895zm171.98-115.78l7.347 25.574-22.055 14.87-1.847 26.571-25.81 6.425-10.803 24.314-26.46-2.795-18.475 19.087L256 285.403l-23.902 11.677-18.475-19.15-26.46 2.795-10.803-24.313-25.81-6.363-1.847-26.534-22.118-14.92 7.348-25.573-15.594-21.544 15.644-21.52-7.398-25.523 22.068-14.87L150.5 73.03l25.86-6.362 10.803-24.313 26.46 2.794L232.098 26 256 37.677 279.902 26l18.475 19.149 26.46-2.794 10.803 24.313 25.81 6.425 1.847 26.534 22.055 14.87-7.347 25.574 15.656 21.407zm-49.214-21.556a72.242 72.242 0 1 0-72.242 72.242 72.355 72.355 0 0 0 72.242-72.242zm-72.242-52.283a52.282 52.282 0 1 0 52.282 52.283 52.395 52.395 0 0 0-52.282-52.245z" fill="#fff" fill-opacity="1"/>
  </g>
</svg>