<?xml version="1.0" encoding="utf-8"?>
<svg version="1.1" id="Layer_1" x="0px" y="0px" viewBox="0 0 512 512" style="enable-background:new 0 0 512 512;" xmlns="http://www.w3.org/2000/svg">
  <style type="text/css">
	.st0{fill:#2B374C;}
	.st1{fill:#F4BF2A;}
</style>
  <g>
    <circle class="st0" cx="255.7" cy="256.5" r="168"/>
    <path class="st1" d="M466,256.5c0-42.3-13.2-84-36.8-119.4V85.7c0-1.4-1.4-2.8-2.8-2.8h-51.4c-71.5-49.3-165.9-49.3-237.4,0H86.3 c-0.7,0-1.4,0-2.1,0.7c-0.7,0.7-0.7,1.4-0.7,2.1v50.7c-50,72.2-50,167.3,0,239.5v50.7c0,1.4,1.4,2.8,2.8,2.8h51.4 c72.2,49.3,166.6,48.6,238.8-0.7h50.7c1.4,0,2.8-1.4,2.8-3.5l0,0v-50.7C453.5,340.5,466,298.9,466,256.5z M73.8,256.5 c0-100.7,81.2-181.9,181.9-181.9s181.9,81.2,181.9,181.9s-81.2,181.9-181.9,181.9l0,0l0,0C155,438.4,73.8,357.2,73.8,256.5z"/>
  </g>
  <g class="" style="" transform="matrix(0.445931, 0, 0, 0.445931, 141.84166, 141.84166)">
    <g class="" style="" transform="matrix(1.014778, 0, 0, 1.014778, -5.252213, -15.168198)">
      <g class="" style="" transform="matrix(0.93712, 0, 0, 0.93712, 17.66202, 27.785961)"/>
      <g class="" style="" transform="matrix(0.942285, 0, 0, 0.942285, 17.227129, 22.714642)">
        <g class="" style="" transform="matrix(0.992337, 0, 0, 0.992337, -2.344673, 8.217331)"/>
      </g>
    </g>
  </g>
  <g class="" style="" transform="matrix(0.43147, 0, 0, 0.43147, 144.768753, 145.415527)"/>
  <g class="" style="" transform="matrix(0.425316, 0, 0, 0.425316, 148.663254, 145.843369)">
    <path d="M180.75 22.97l-17.72 5.968 25.345 75.406 17.72-6.03-25.345-75.345zm73.906 78.56L149.97 137.157l10.155 29.875c8.316-9.75 17.78-17.498 28.125-23.374 7.232 27.494 16.666 54.12 27.813 79.906 13-5.56 26.423-10.197 39.906-13.718-6.967-26.727-15.822-53.187-26.345-79.313 11.295-1.24 23.1-.91 35.22.94l-10.19-29.94zm191.688 88.22c-19.464-.103-42.28 9.843-60.875 28.438-5.778 5.776-10.684 11.978-14.75 18.343-28.734-17.313-69.766-18.263-110.22-7.968-.02-.093-.04-.187-.063-.28-12.357 3.134-24.726 7.248-36.687 12.312l.188.406c-87.328 37.506-151.902 123.99-48.032 202.063H46.03L17.25 495.03h279.875l-96.28-112.374c26.414-29.067 73.41-47.584 105.56-49.062C321.42 382.674 345.85 457.11 384.47 495h66.25c-46.88-50.664-83.318-118.734-89.19-195.75 1.76 3.523 4.022 6.77 6.845 9.594 20.312 20.312 60.906 12.657 90.656-17.094 29.752-29.75 37.407-70.344 17.095-90.656-7.617-7.617-18.103-11.282-29.78-11.344z" fill="#fff" fill-opacity="1"/>
  </g>
</svg>