<?xml version="1.0" encoding="utf-8"?>
<svg version="1.1" id="Layer_1" x="0px" y="0px" viewBox="0 0 512 512" style="enable-background:new 0 0 512 512;" xmlns="http://www.w3.org/2000/svg">
  <style type="text/css">
	.st0{fill:#2B374C;}
	.st1{fill:#F4BF2A;}
</style>
  <g>
    <circle class="st0" cx="255.7" cy="256.5" r="168"/>
    <path class="st1" d="M466,256.5c0-42.3-13.2-84-36.8-119.4V85.7c0-1.4-1.4-2.8-2.8-2.8h-51.4c-71.5-49.3-165.9-49.3-237.4,0H86.3 c-0.7,0-1.4,0-2.1,0.7c-0.7,0.7-0.7,1.4-0.7,2.1v50.7c-50,72.2-50,167.3,0,239.5v50.7c0,1.4,1.4,2.8,2.8,2.8h51.4 c72.2,49.3,166.6,48.6,238.8-0.7h50.7c1.4,0,2.8-1.4,2.8-3.5l0,0v-50.7C453.5,340.5,466,298.9,466,256.5z M73.8,256.5 c0-100.7,81.2-181.9,181.9-181.9s181.9,81.2,181.9,181.9s-81.2,181.9-181.9,181.9l0,0l0,0C155,438.4,73.8,357.2,73.8,256.5z"/>
  </g>
  <g class="" style="" transform="matrix(0.445931, 0, 0, 0.445931, 141.84166, 141.84166)">
    <g class="" style="" transform="matrix(1.014778, 0, 0, 1.014778, -5.252213, -15.168198)">
      <g class="" style="" transform="matrix(0.93712, 0, 0, 0.93712, 17.66202, 27.785961)"/>
      <g class="" style="" transform="matrix(0.942285, 0, 0, 0.942285, 17.227129, 22.714642)">
        <g class="" style="" transform="matrix(0.992337, 0, 0, 0.992337, -2.344673, 8.217331)"/>
      </g>
    </g>
  </g>
  <g class="" style="" transform="matrix(0.43147, 0, 0, 0.43147, 144.768753, 145.415527)"/>
  <g class="" style="" transform="matrix(0.447917, 0, 0, 0.447917, 141.333252, 116.249893)">
    <path d="M90.52 390.06h38.497v16.583H65.443V390.06l31.933-28.182c2.852-2.578 4.96-5.098 6.328-7.56 1.368-2.46 2.05-5.018 2.05-7.675 0-4.1-1.386-7.402-4.16-9.902-2.733-2.5-6.386-3.75-10.956-3.75-3.516 0-7.363.763-11.543 2.286-4.18 1.485-8.652 3.71-13.418 6.68v-19.22c5.078-1.678 10.098-2.948 15.06-3.807 4.96-.9 9.823-1.35 14.588-1.35 10.47 0 18.594 2.306 24.375 6.915 5.82 4.61 8.73 11.035 8.73 19.277 0 4.766-1.23 9.22-3.69 13.36-2.46 4.1-7.637 9.61-15.528 16.523l-18.69 16.406m349.377 32.915c5.897 1.524 10.37 4.18 13.417 7.97 3.086 3.75 4.63 8.534 4.63 14.355 0 8.672-3.322 15.273-9.962 19.804-6.64 4.493-16.328 6.74-29.063 6.74-4.492 0-9.004-.372-13.535-1.115-4.492-.704-8.945-1.778-13.36-3.223v-17.403c4.22 2.11 8.4 3.71 12.54 4.805 4.18 1.054 8.28 1.58 12.304 1.58 5.978 0 10.548-1.034 13.712-3.104 3.203-2.07 4.805-5.04 4.805-8.907 0-3.985-1.64-6.993-4.922-9.024-3.242-2.07-8.047-3.105-14.414-3.106h-9.022v-14.53h9.492c5.664 0 9.883-.88 12.656-2.638 2.773-1.796 4.16-4.51 4.16-8.144 0-3.36-1.347-5.957-4.043-7.793-2.695-1.836-6.504-2.754-11.426-2.754-3.632 0-7.304.41-11.015 1.232-3.71.82-7.403 2.03-11.074 3.632V384.83c4.453-1.25 8.867-2.186 13.242-2.812 4.375-.624 8.672-.937 12.89-.937 11.368 0 19.864 1.876 25.49 5.626 5.663 3.71 8.495 9.316 8.495 16.816 0 5.118-1.348 9.317-4.043 12.598-2.696 3.242-6.68 5.527-11.953 6.856M236.062 230.74h19.922v-56.544l-20.45 4.22v-15.352l20.333-4.22h21.445v71.895h19.922v15.585h-61.172V230.74M496 496V352H352V128H176v160H16v208" fill="#fff" fill-opacity="1"/>
  </g>
</svg>