<?xml version="1.0" encoding="utf-8"?>
<svg version="1.1" id="Layer_1" x="0px" y="0px" viewBox="0 0 512 512" style="enable-background:new 0 0 512 512;" xmlns="http://www.w3.org/2000/svg">
  <style type="text/css">
	.st0{fill:#2B374C;}
	.st1{fill:#F4BF2A;}
</style>
  <g>
    <circle class="st0" cx="255.7" cy="256.5" r="168"/>
    <path class="st1" d="M466,256.5c0-42.3-13.2-84-36.8-119.4V85.7c0-1.4-1.4-2.8-2.8-2.8h-51.4c-71.5-49.3-165.9-49.3-237.4,0H86.3 c-0.7,0-1.4,0-2.1,0.7c-0.7,0.7-0.7,1.4-0.7,2.1v50.7c-50,72.2-50,167.3,0,239.5v50.7c0,1.4,1.4,2.8,2.8,2.8h51.4 c72.2,49.3,166.6,48.6,238.8-0.7h50.7c1.4,0,2.8-1.4,2.8-3.5l0,0v-50.7C453.5,340.5,466,298.9,466,256.5z M73.8,256.5 c0-100.7,81.2-181.9,181.9-181.9s181.9,81.2,181.9,181.9s-81.2,181.9-181.9,181.9l0,0l0,0C155,438.4,73.8,357.2,73.8,256.5z"/>
  </g>
  <path d="M 256.321 150.001 C 248.192 150.079 239.85 152.403 235.512 156.883 L 237.403 167.471 L 229.479 167.526 L 231.059 172.567 L 236.461 189.803 C 237.077 202.928 232.832 213.439 226.436 223.298 C 218.504 235.524 207.089 246.387 197.97 258.451 C 193.107 264.886 191.337 272.385 192.381 279.625 C 193.425 286.865 197.144 293.815 202.813 299.831 C 214.149 311.863 233.366 320.366 256.808 320.203 C 279.027 320.049 298.062 311.264 309.522 299.136 C 315.252 293.072 319.123 286.117 320.294 278.857 C 321.463 271.596 319.756 264.041 314.761 257.638 L 314.763 257.638 C 305.452 245.699 293.843 234.996 285.697 222.881 C 279.008 212.932 274.543 202.278 275.134 188.809 L 281.541 167.17 L 274.136 167.221 L 275.857 156.603 C 272.369 152.094 264.452 149.924 256.322 150.002 L 256.321 150.001 Z M 271.006 175.066 L 268.237 184.418 C 258.77 188.886 250.871 188.547 243.089 184.676 L 240.144 175.278 L 271.006 175.066 Z M 267.318 193.275 C 267.853 206.455 272.668 217.572 279.162 227.231 C 282.263 231.842 285.727 236.163 289.291 240.317 C 280.558 237.933 268.513 236.4 255.277 236.4 C 243.425 236.4 232.532 237.631 224.112 239.599 C 227.261 235.755 230.301 231.766 233.041 227.543 C 239.332 217.848 243.937 206.734 244.303 193.645 C 251.506 196.013 259.303 196.041 267.319 193.275 L 267.318 193.275 Z M 299.115 251.373 C 300.914 253.377 302.684 255.369 304.381 257.354 C 301.322 259.335 297.464 260.918 292.899 262.267 C 283.033 265.181 269.847 266.895 255.277 266.895 C 240.706 266.895 227.52 265.18 217.655 262.267 C 213.951 261.173 210.722 259.921 208 258.432 C 209.679 256.393 211.439 254.346 213.226 252.289 C 215.066 253.151 217.308 254.003 219.892 254.766 C 228.711 257.37 241.337 259.07 255.277 259.07 C 269.217 259.07 281.843 257.37 290.662 254.766 C 294.159 253.733 297.039 252.541 299.116 251.374 L 299.115 251.373 Z M 190.729 295.336 C 169.629 301.043 156 309.494 156 318.869 C 156 336.043 200.814 350 256 350 C 311.185 350 356 336.043 356 318.869 C 356 309.528 342.487 301.042 321.517 295.336 C 328.766 299.055 333.094 303.397 333.094 308.084 C 333.094 321.537 298.466 332.597 256.001 332.597 C 213.535 332.597 179.153 321.535 179.153 308.084 C 179.153 303.371 183.407 299.067 190.73 295.336 L 190.729 295.336 Z" fill="#fff" fill-opacity="1"/>
</svg>