<?xml version="1.0" encoding="utf-8"?>
<svg version="1.1" id="Layer_1" x="0px" y="0px" viewBox="0 0 512 512" style="enable-background:new 0 0 512 512;" xmlns="http://www.w3.org/2000/svg">
  <style type="text/css">
	.st0{fill:#2B374C;}
	.st1{fill:#F4BF2A;}
</style>
  <g>
    <circle class="st0" cx="255.7" cy="256.5" r="168"/>
    <path class="st1" d="M466,256.5c0-42.3-13.2-84-36.8-119.4V85.7c0-1.4-1.4-2.8-2.8-2.8h-51.4c-71.5-49.3-165.9-49.3-237.4,0H86.3 c-0.7,0-1.4,0-2.1,0.7c-0.7,0.7-0.7,1.4-0.7,2.1v50.7c-50,72.2-50,167.3,0,239.5v50.7c0,1.4,1.4,2.8,2.8,2.8h51.4 c72.2,49.3,166.6,48.6,238.8-0.7h50.7c1.4,0,2.8-1.4,2.8-3.5l0,0v-50.7C453.5,340.5,466,298.9,466,256.5z M73.8,256.5 c0-100.7,81.2-181.9,181.9-181.9s181.9,81.2,181.9,181.9s-81.2,181.9-181.9,181.9l0,0l0,0C155,438.4,73.8,357.2,73.8,256.5z"/>
  </g>
  <path d="M 254.122 169.718 C 214.752 169.341 177.089 194.537 148.501 241.573 C 213.364 309.054 292.624 307.673 363.5 241.573 C 329.604 192.992 291.11 170.072 254.123 169.719 L 254.122 169.718 Z M 259.473 179.422 C 285.634 181.159 306.315 202.925 306.315 229.523 C 306.315 257.257 283.831 279.74 256.097 279.74 C 228.364 279.74 205.882 257.257 205.882 229.523 C 205.882 211.714 215.154 196.07 229.133 187.155 L 247.27 216.444 L 219.597 219.52 L 276.244 269.252 L 256.023 228.314 L 283.533 224.816 L 259.473 179.42 L 259.473 179.422 Z M 148.501 258.526 C 151.585 270.338 157.322 280.547 164.999 289.141 L 154.275 305.227 L 161.365 309.956 L 171.133 295.305 C 175.375 299.137 180.041 302.581 185.057 305.626 L 176.821 323.322 L 184.547 326.917 L 192.538 309.746 C 198.059 312.507 203.908 314.839 209.989 316.743 L 203.77 335.356 L 211.851 338.057 L 218.211 319.025 C 224.447 320.54 230.872 321.631 237.393 322.293 L 236.338 341.709 L 244.846 342.172 L 245.893 322.911 C 252.38 323.199 258.917 323.071 265.422 322.525 L 267.168 342.286 L 275.656 341.536 L 273.893 321.576 C 280.307 320.671 286.651 319.355 292.834 317.622 L 299.621 338.004 L 307.707 335.312 L 300.967 315.068 C 306.87 313.008 312.583 310.547 318.027 307.686 L 326.938 326.894 L 334.668 323.307 L 325.445 303.429 C 330.277 300.407 334.839 297.034 339.066 293.309 L 350.138 309.956 L 357.233 305.235 L 345.301 287.293 C 353.024 279.121 359.268 269.537 363.499 258.525 C 292.624 319.331 213.363 320.6 148.5 258.525 L 148.501 258.526 Z" fill="#fff" fill-opacity="1"/>
</svg>