<?xml version="1.0" encoding="utf-8"?>
<svg version="1.1" id="Layer_1" x="0px" y="0px" viewBox="0 0 512 512" style="enable-background:new 0 0 512 512;" xmlns="http://www.w3.org/2000/svg">
  <style type="text/css">
	.st0{fill:#2B374C;}
	.st1{fill:#F4BF2A;}
</style>
  <g>
    <circle class="st0" cx="255.7" cy="256.5" r="168"/>
    <path class="st1" d="M466,256.5c0-42.3-13.2-84-36.8-119.4V85.7c0-1.4-1.4-2.8-2.8-2.8h-51.4c-71.5-49.3-165.9-49.3-237.4,0H86.3 c-0.7,0-1.4,0-2.1,0.7c-0.7,0.7-0.7,1.4-0.7,2.1v50.7c-50,72.2-50,167.3,0,239.5v50.7c0,1.4,1.4,2.8,2.8,2.8h51.4 c72.2,49.3,166.6,48.6,238.8-0.7h50.7c1.4,0,2.8-1.4,2.8-3.5l0,0v-50.7C453.5,340.5,466,298.9,466,256.5z M73.8,256.5 c0-100.7,81.2-181.9,181.9-181.9s181.9,81.2,181.9,181.9s-81.2,181.9-181.9,181.9l0,0l0,0C155,438.4,73.8,357.2,73.8,256.5z"/>
  </g>
  <path d="M 225.308 156.481 C 248.074 175.746 227.639 186.292 222 188.838 C 204.828 196.623 184.838 178.405 179.813 160.283 C 173.763 178.609 159.827 216.296 184.549 231.56 C 169.383 248.478 169.4 247.248 156.897 228.209 C 153.315 245.72 155.693 275.95 163.548 297.787 C 164.414 288.416 165.687 279.342 168.31 272.051 L 168.773 270.778 L 169.952 270.056 C 189.396 258.525 206.44 254.793 219.668 253.056 C 218.396 247.842 217.676 242.244 217.676 236.435 C 217.676 235.163 217.718 233.891 217.76 232.662 L 182.969 215.406 L 198.001 209.088 L 178.779 189.924 L 216.827 211.546 L 204.447 216.72 L 218.015 229.695 C 219.074 218.5 222.762 208.453 228.317 200.651 C 234.973 191.281 244.599 185.134 255.41 185.134 C 266.221 185.134 275.847 191.281 282.502 200.651 C 288.1 208.494 291.787 218.628 292.847 229.863 L 309.849 212.352 L 293.695 207.733 L 329.353 177.999 L 311.164 203.661 L 330.328 209.724 L 292.933 230.797 C 293.103 233.468 293.187 235.798 293.103 238.216 C 295.731 237.834 298.402 237.58 301.03 237.537 C 303.488 237.537 305.906 237.707 308.112 238.089 C 314.385 239.87 325.409 257.507 327.233 262.553 C 326.003 268.617 321.721 273.322 317.736 277.308 L 336.772 317.967 C 339.274 323.311 337.96 330.01 336.984 335.054 C 335.966 340.142 333.041 345.018 327.785 346.714 C 317.736 348.834 310.612 343.449 304.763 336.962 C 304.846 343.407 304.763 349.725 304.592 356 L 344.616 356 C 356.233 342.389 356.573 326.235 355.173 308.894 C 344.702 319.707 336.052 302.832 330.837 291.257 C 343.26 302.576 360.559 273.068 355.978 246.018 C 353.689 252.717 337.918 257.465 330.965 234.273 C 352.333 228.761 354.029 201.033 356.615 187.652 C 347.627 199.04 342.496 205.484 328.801 197.938 C 345.254 185.917 331.812 166.876 317.481 159.355 C 327.233 173.656 293.187 197.429 283.096 187.545 C 276.863 165.841 247.481 153.335 225.308 156.481 Z M 255.41 192.766 C 247.481 192.766 240.146 197.217 234.55 205.061 C 232.218 208.283 230.268 212.098 228.742 216.296 C 238.281 221.682 247.99 226.937 252.994 236.521 C 252.399 238.767 251.976 241.099 251.34 243.304 L 232.515 238.81 C 235.525 233.468 244.302 233.891 249.346 240.166 C 246.125 235.375 241.248 231.687 232.853 231.263 L 228.443 217.102 C 226.452 222.91 225.308 229.483 225.308 236.435 C 225.308 248.816 228.912 259.967 234.55 267.811 C 240.146 275.654 247.481 280.106 255.41 280.106 C 263.338 280.106 270.673 275.654 276.27 267.811 C 276.863 267.005 277.373 266.157 277.924 265.309 C 276.99 258.059 276.27 248.603 279.238 243.176 C 280.509 241.185 283.436 240.59 285.386 239.955 C 285.724 231.985 284.453 223.038 282.035 216.254 L 277.796 231.093 C 270.546 231.645 266.009 234.57 262.871 238.471 C 266.305 236.563 273.726 235.757 278.304 234.739 C 278.772 237.156 279.492 239.573 277.118 242.329 C 271.479 240.462 264.568 241.735 259.777 243.516 C 259.267 241.227 258.378 238.81 257.783 236.859 C 262.617 227.024 272.413 221.512 281.91 215.83 C 280.424 211.802 278.518 208.198 276.27 205.061 C 270.673 197.217 263.338 192.766 255.41 192.766 Z M 285.469 248.138 C 284.538 250.935 284.198 256.49 285.132 262.171 C 286.021 267.98 287.929 273.746 289.455 276.672 C 292.382 277.732 295.307 278.834 298.232 279.936 L 308.832 329.966 C 312.902 334.545 319.135 341.372 325.453 339.463 C 331.472 336.37 330.072 325.473 329.353 320.129 L 308.746 276.078 C 312.012 271.075 317.608 267.132 319.177 262.849 C 316.973 257.253 311.672 249.58 306.034 245.508 C 299.547 245.296 290.856 246.314 285.469 248.138 Z M 238.747 249.918 C 242.054 249.918 248.116 256.277 255.622 255.812 C 262.364 255.43 268.087 246.781 272.368 251.911 C 277.032 257.549 270.673 266.285 267.535 268.871 C 267.535 268.871 261.473 262.638 255.75 263.105 C 250.11 263.529 245.106 270.056 245.106 270.056 C 238.409 266.03 233.109 257.931 236.881 251.106 C 237.347 250.257 237.984 249.918 238.747 249.918 Z M 222.042 260.476 C 209.365 262.045 193.593 265.224 175.107 275.95 C 170.837 292.487 170.579 309.488 168.99 324.624 L 158.864 342.091 C 160.052 348.199 162.027 356.253 168.815 355.702 C 176.435 354.642 183.99 350.021 186.669 343.407 C 185.639 338.828 184.066 335.224 182.357 331.536 C 184.172 317.459 184.16 303.552 188.009 292.741 L 189.234 289.433 C 201.605 292.232 209.493 290.535 218.989 283.752 L 218.48 291.807 C 217.04 313.599 213.393 336.623 214.199 356 L 296.918 356 C 297.553 334.884 297.044 313.473 292.465 290.621 C 292.169 289.051 291.915 287.399 291.617 285.617 L 284.156 282.82 C 282.545 280.275 281.23 277.35 280.382 274.976 C 273.854 282.735 265.119 287.738 255.41 287.738 C 244.599 287.738 234.973 281.59 228.317 272.22 C 225.815 268.743 223.696 264.757 222.042 260.476 Z M 210.297 297.87 C 204.787 299.566 198.934 299.396 194.144 298.549 C 191.048 308.767 191.006 319.069 190.116 330.179 C 192.236 335.478 193.932 339.422 194.526 344.255 C 192.787 348.749 190.286 353.159 187.542 356 L 206.483 356 C 205.719 337.555 208.645 317.161 210.297 297.87 Z" fill="#fff" fill-opacity="1"/>
</svg>