<?xml version="1.0" encoding="utf-8"?>
<svg version="1.1" id="Layer_1" x="0px" y="0px" viewBox="0 0 512 512" style="enable-background:new 0 0 512 512;" xmlns="http://www.w3.org/2000/svg">
  <style type="text/css">
	.st0{fill:#2B374C;}
	.st1{fill:#F4BF2A;}
</style>
  <g>
    <circle class="st0" cx="255.7" cy="256.5" r="168"/>
    <path class="st1" d="M466,256.5c0-42.3-13.2-84-36.8-119.4V85.7c0-1.4-1.4-2.8-2.8-2.8h-51.4c-71.5-49.3-165.9-49.3-237.4,0H86.3 c-0.7,0-1.4,0-2.1,0.7c-0.7,0.7-0.7,1.4-0.7,2.1v50.7c-50,72.2-50,167.3,0,239.5v50.7c0,1.4,1.4,2.8,2.8,2.8h51.4 c72.2,49.3,166.6,48.6,238.8-0.7h50.7c1.4,0,2.8-1.4,2.8-3.5l0,0v-50.7C453.5,340.5,466,298.9,466,256.5z M73.8,256.5 c0-100.7,81.2-181.9,181.9-181.9s181.9,81.2,181.9,181.9s-81.2,181.9-181.9,181.9l0,0l0,0C155,438.4,73.8,357.2,73.8,256.5z"/>
  </g>
  <g class="" style="" transform="matrix(0.445931, 0, 0, 0.445931, 141.84166, 141.84166)">
    <path d="M 372.48 45.205 C 294.83 45.205 256 110.935 256 110.935 C 256 110.935 217.17 45.215 139.52 45.215 C 102.38 45.215 31.75 78.935 31.75 170.345 C 31.75 331.585 256 494.775 256 494.775 C 256 494.775 480.25 331.585 480.25 170.345 C 480.25 78.925 409.62 45.215 372.48 45.205 Z M 226.988 160.225 L 287.686 160.225 L 287.686 239.64 L 366.924 239.64 L 366.924 300.34 L 287.686 300.34 L 287.686 380.224 L 226.988 380.224 L 226.988 300.34 L 146.924 300.34 L 146.924 239.64 L 226.988 239.64 L 226.988 160.225 Z" fill="#fff" fill-opacity="1"/>
  </g>
</svg>