<?xml version="1.0" encoding="utf-8"?>
<svg version="1.1" id="Layer_1" x="0px" y="0px" viewBox="0 0 512 512" style="enable-background:new 0 0 512 512;" xmlns="http://www.w3.org/2000/svg">
  <style type="text/css">
	.st0{fill:#2B374C;}
	.st1{fill:#F4BF2A;}
</style>
  <g>
    <circle class="st0" cx="255.7" cy="256.5" r="168"/>
    <path class="st1" d="M466,256.5c0-42.3-13.2-84-36.8-119.4V85.7c0-1.4-1.4-2.8-2.8-2.8h-51.4c-71.5-49.3-165.9-49.3-237.4,0H86.3 c-0.7,0-1.4,0-2.1,0.7c-0.7,0.7-0.7,1.4-0.7,2.1v50.7c-50,72.2-50,167.3,0,239.5v50.7c0,1.4,1.4,2.8,2.8,2.8h51.4 c72.2,49.3,166.6,48.6,238.8-0.7h50.7c1.4,0,2.8-1.4,2.8-3.5l0,0v-50.7C453.5,340.5,466,298.9,466,256.5z M73.8,256.5 c0-100.7,81.2-181.9,181.9-181.9s181.9,81.2,181.9,181.9s-81.2,181.9-181.9,181.9l0,0l0,0C155,438.4,73.8,357.2,73.8,256.5z"/>
  </g>
  <path d="M 198.499 193.5 L 163.501 193.5 C 159.359 193.5 156.001 196.858 156.001 201.002 L 156.001 311 C 156.001 315.142 159.359 318.5 163.501 318.5 L 198.499 318.5 C 202.643 318.5 206 315.142 206 311 L 206 201.002 C 206 196.858 202.643 193.5 198.499 193.5 Z" stroke-width="1.5" stroke-linecap="round" stroke-linejoin="round" style="fill: rgb(255, 255, 255); stroke: rgb(255, 255, 255);"/>
  <path d="M 348.501 193.5 L 313.5 193.5 C 309.358 193.5 306 196.858 306 201.002 L 306 311 C 306 315.142 309.358 318.5 313.5 318.5 L 348.501 318.5 C 352.643 318.5 355.999 315.142 355.999 311 L 355.999 201.002 C 355.999 196.858 352.643 193.5 348.501 193.5 Z" stroke-width="1.5" stroke-linecap="round" stroke-linejoin="round" style="fill: rgb(255, 255, 255); stroke: rgb(255, 255, 255);"/>
  <path d="M 118.5 286.001 L 118.5 226.001 C 118.5 221.858 121.858 218.501 126 218.501 L 148.501 218.501 C 152.643 218.501 156.001 221.858 156.001 226.001 L 156.001 286.001 C 156.001 290.143 152.643 293.499 148.501 293.499 L 126 293.499 C 121.858 293.499 118.5 290.143 118.5 286.001 Z" stroke-width="1.5" stroke-linecap="round" stroke-linejoin="round" style="fill-rule: nonzero; fill: rgb(255, 255, 255); stroke: rgb(255, 255, 255);"/>
  <path d="M 393.5 286.001 L 393.5 226.001 C 393.5 221.858 390.143 218.501 386.001 218.501 L 363.499 218.501 C 359.357 218.501 355.999 221.858 355.999 226.001 L 355.999 286.001 C 355.999 290.143 359.357 293.499 363.499 293.499 L 386.001 293.499 C 390.143 293.499 393.5 290.143 393.5 286.001 Z" stroke-width="1.5" stroke-linecap="round" stroke-linejoin="round" style="fill: rgb(255, 255, 255); stroke: rgb(255, 255, 255);"/>
  <path d="M 206 256.002 L 306 256.002" stroke-linecap="round" stroke-linejoin="round" style="fill: rgb(255, 255, 255); paint-order: stroke; stroke: rgb(255, 255, 255); stroke-width: 30px;"/>
</svg>