<?xml version="1.0" encoding="utf-8"?>
<svg version="1.1" id="Layer_1" x="0px" y="0px" viewBox="0 0 512 512" style="enable-background:new 0 0 512 512;" xmlns="http://www.w3.org/2000/svg">
  <style type="text/css">
	.st0{fill:#2B374C;}
	.st1{fill:#F4BF2A;}
</style>
  <g>
    <circle class="st0" cx="255.7" cy="256.5" r="168"/>
    <path class="st1" d="M466,256.5c0-42.3-13.2-84-36.8-119.4V85.7c0-1.4-1.4-2.8-2.8-2.8h-51.4c-71.5-49.3-165.9-49.3-237.4,0H86.3 c-0.7,0-1.4,0-2.1,0.7c-0.7,0.7-0.7,1.4-0.7,2.1v50.7c-50,72.2-50,167.3,0,239.5v50.7c0,1.4,1.4,2.8,2.8,2.8h51.4 c72.2,49.3,166.6,48.6,238.8-0.7h50.7c1.4,0,2.8-1.4,2.8-3.5l0,0v-50.7C453.5,340.5,466,298.9,466,256.5z M73.8,256.5 c0-100.7,81.2-181.9,181.9-181.9s181.9,81.2,181.9,181.9s-81.2,181.9-181.9,181.9l0,0l0,0C155,438.4,73.8,357.2,73.8,256.5z"/>
  </g>
  <g class="" style="" transform="matrix(0.445931, 0, 0, 0.445931, 141.84166, 141.84166)">
    <g class="" style="" transform="matrix(1.014778, 0, 0, 1.014778, -5.252213, -15.168198)">
      <path d="M 240.434 46.237 C 238.036 46.245 235.647 46.27 233.262 46.335 C 231.388 46.387 229.514 46.445 227.649 46.53 C 218.496 48.157 214.27 52.164 211.975 56.751 C 209.447 61.808 209.545 68.612 212.365 74.663 C 215.186 80.717 220.36 85.666 227.584 87.514 C 234.809 89.362 244.755 88.407 257.827 80.051 L 268.277 96.406 C 251.851 106.904 235.958 109.673 222.782 106.302 C 209.607 102.93 199.83 93.713 194.779 82.872 C 190.019 72.659 189.144 60.676 193.709 50.034 C 149.145 57.241 108.793 74.331 77.798 98.384 C 67.611 109.482 66.614 122.381 71.08 131.191 C 76.095 141.082 87.912 148.303 111.546 140.827 L 117.419 159.324 C 87.742 168.711 63.28 158.713 53.786 139.984 C 51.471 135.418 50.056 130.476 49.501 125.381 C 44.502 131.312 39.989 137.486 36.002 143.91 L 36.133 143.972 C 27.188 164.341 26.984 178.45 30.55 187.618 C 34.118 196.787 41.593 202.612 53.104 205.823 C 76.123 212.24 113.398 204.497 139.646 184.893 C 150.882 176.503 161.532 156.154 162.46 140.372 C 162.922 132.48 161.25 126.246 157.948 122.265 C 154.646 118.284 149.358 115.304 138.413 115.418 L 138.219 96.014 C 153.262 95.859 165.476 100.951 172.875 109.871 C 180.272 118.79 182.49 130.277 181.831 141.508 C 180.512 163.972 168.752 187.376 151.263 200.437 C 120.24 223.607 79.265 233.256 47.912 224.515 C 33.387 220.465 20.53 211.653 13.905 198.005 C 3.992 245.195 18.394 289.03 45.802 319.365 C 49.385 323.332 53.197 327.081 57.193 330.559 C 54.333 322.369 53.023 313.841 53.33 305.541 C 53.881 290.666 59.646 276.107 71.211 266.051 C 80.696 257.8 93.798 253.04 109.469 253.071 C 110.513 253.071 111.581 253.09 112.648 253.134 C 115.089 253.238 117.594 253.449 120.145 253.784 L 117.612 273.027 C 101.425 270.901 90.92 274.608 83.931 280.685 C 76.942 286.764 73.087 295.86 72.703 306.256 C 71.934 327.048 85.236 351.328 113.916 358.37 L 113.883 358.565 C 142.119 363.955 173.628 358.952 205.261 339.646 C 205.28 339.634 205.306 339.628 205.325 339.615 C 211.909 334.994 215.455 330.469 217.203 326.57 C 219.264 321.967 219.22 317.959 217.753 313.654 C 214.82 305.046 204.316 296.197 194.682 293.731 C 179.104 289.743 169.208 295.222 164.569 301.747 C 159.929 308.268 159.647 314.675 166.808 320.241 L 154.897 335.557 C 140.166 324.1 139.226 303.9 148.766 290.486 C 155.922 280.426 168.479 273.533 183.618 273.093 C 184.248 273.074 184.893 273.055 185.533 273.061 C 190.004 273.093 194.66 273.707 199.486 274.941 C 215.586 279.063 230.471 290.804 236.12 307.391 C 237.59 311.705 238.29 316.414 238.068 321.216 C 255.419 312.35 273.718 304.477 292.357 298.564 C 323.671 284.255 337.246 259.17 336.717 238.047 C 336.182 216.767 323.024 198.858 292.714 195.861 L 294.629 176.554 C 332.702 180.319 355.335 207.548 356.089 237.559 C 356.527 255.045 350.114 273.241 337.203 288.731 C 353.892 286.862 370.477 287.178 386.557 290.42 C 383.284 283.7 381.698 276.425 381.919 269.198 C 382.622 246.316 402.084 224.97 432.67 224.645 C 434.708 224.622 436.797 224.7 438.932 224.871 L 437.374 244.211 C 411.49 242.136 401.757 255.722 401.323 269.813 C 400.895 283.749 410.196 299.347 436.857 301.418 C 466.243 301.677 487.31 285.74 497.634 262.057 C 511.455 230.348 504.899 182.81 461.452 139.332 C 460.63 138.508 459.814 137.678 458.986 136.865 C 458.525 140.803 457.507 144.594 456.035 148.126 C 448.507 166.183 430.872 178.372 412.552 181.777 C 387.283 186.472 366.562 176.225 356.999 160.587 C 347.435 144.952 349.946 122.842 367.154 111.202 L 378.026 127.297 C 368.771 133.556 368.39 142.031 373.547 150.463 C 378.705 158.897 390.338 166.201 409.015 162.731 C 420.755 160.548 433.828 150.966 438.121 140.665 C 440.27 135.515 440.685 130.424 438.544 124.601 C 436.805 119.871 433.158 114.462 426.374 108.766 L 426.18 108.605 C 397.816 87.227 367.68 71.853 337.138 61.714 C 337.157 61.747 337.185 61.777 337.204 61.811 C 344.144 74.5 344.659 88.894 340.384 101.627 C 331.835 127.093 305.007 147.158 271.818 146.049 C 264.603 145.81 257.737 149.289 251.895 156.077 C 246.052 162.865 241.786 172.808 240.797 183.4 C 238.819 204.583 247.986 227.932 283.728 239.473 L 277.751 257.937 C 235.091 244.164 218.739 210.643 221.45 181.616 C 222.807 167.104 228.413 153.619 237.188 143.424 C 245.965 133.229 258.449 126.184 272.462 126.648 C 297.425 127.481 316.41 112.023 321.98 95.431 C 324.765 87.136 324.405 78.882 320.163 71.127 C 316.043 63.597 307.879 56.151 293.262 50.717 C 275.491 47.636 257.791 46.182 240.434 46.237 Z M 345.537 307.846 C 302.013 311.387 254.817 332.145 215.448 356.196 C 157.319 391.707 96.147 383.955 52.745 351.752 C 69.82 412.854 130.325 425.257 193.446 409.803 C 199.763 407.43 205.969 403.014 211.262 397.311 C 218.59 389.412 223.899 379.17 225.571 370.702 L 244.619 374.466 C 242.08 387.325 235.193 400.079 225.507 410.519 C 216.213 420.534 204.105 428.535 190.104 430.637 C 183.078 446.285 177.296 461.456 174.95 472.075 C 171.263 488.751 189.701 495.153 197.956 478.336 C 217.708 438.106 245.587 402.295 280.41 371.417 C 307.475 353.605 330.674 331.643 345.538 307.846 L 345.537 307.846 Z" fill="#fff" fill-opacity="1"/>
    </g>
  </g>
</svg>