<?xml version="1.0" encoding="utf-8"?>
<svg version="1.1" id="Layer_1" x="0px" y="0px" viewBox="0 0 512 512" style="enable-background:new 0 0 512 512;" xmlns="http://www.w3.org/2000/svg">
  <style type="text/css">
	.st0{fill:#2B374C;}
	.st1{fill:#F4BF2A;}
</style>
  <g>
    <circle class="st0" cx="255.7" cy="256.5" r="168"/>
    <path class="st1" d="M466,256.5c0-42.3-13.2-84-36.8-119.4V85.7c0-1.4-1.4-2.8-2.8-2.8h-51.4c-71.5-49.3-165.9-49.3-237.4,0H86.3 c-0.7,0-1.4,0-2.1,0.7c-0.7,0.7-0.7,1.4-0.7,2.1v50.7c-50,72.2-50,167.3,0,239.5v50.7c0,1.4,1.4,2.8,2.8,2.8h51.4 c72.2,49.3,166.6,48.6,238.8-0.7h50.7c1.4,0,2.8-1.4,2.8-3.5l0,0v-50.7C453.5,340.5,466,298.9,466,256.5z M73.8,256.5 c0-100.7,81.2-181.9,181.9-181.9s181.9,81.2,181.9,181.9s-81.2,181.9-181.9,181.9l0,0l0,0C155,438.4,73.8,357.2,73.8,256.5z"/>
  </g>
  <g class="" style="" transform="matrix(0.445931, 0, 0, 0.445931, 141.84166, 141.84166)">
    <g class="" style="" transform="matrix(1.014778, 0, 0, 1.014778, -5.252213, -15.168198)">
      <g class="" style="" transform="matrix(0.93712, 0, 0, 0.93712, 17.66202, 27.785961)"/>
      <g class="" style="" transform="matrix(0.942285, 0, 0, 0.942285, 17.227129, 22.714642)">
        <g class="" style="" transform="matrix(0.992337, 0, 0, 0.992337, -2.344673, 8.217331)"/>
      </g>
    </g>
  </g>
  <g class="" style="" transform="matrix(0.43147, 0, 0, 0.43147, 144.768753, 145.415527)">
    <path d="M257.78 19.438c-127.92.016-231.75 103.855-231.75 231.78 0 55.734 19.71 106.776 52.532 146.72L57.75 434.094h132.406l-66.312-114.72-22.375 39c-20.9-30.478-33.064-67.442-33.064-107.155 0-104.523 84.854-189.376 189.375-189.376 104.523 0 189.408 84.853 189.408 189.375 0 39.108-11.68 75.664-32 105.874l-21.875-37.72L327 434.095h132.406l-21.594-37.47c32.225-39.78 51.75-90.253 51.75-145.405 0-127.927-103.827-231.766-231.75-231.782h-.03zm-.655 75.468c-49.528-.047-110.474 29.232-128.406 104.938l60.75 14.312c26.965-76.242 90.87-70.824 113.31-28.625 26.775 50.346-89.687 107.283-84.124 190.407h77.688c6.49-98.144 118.973-123.49 59.562-229.53C337.963 114.38 301 96.572 261.876 95.03V95c-1.573-.062-3.153-.092-4.75-.094zM258.5 395.97c-26.95 0-48.594 21.644-48.594 48.592 0 26.95 21.645 48.594 48.594 48.594 26.95 0 48.594-21.645 48.594-48.594 0-26.948-21.645-48.593-48.594-48.593z" fill="#fff" fill-opacity="1"/>
  </g>
</svg>