<?xml version="1.0" encoding="utf-8"?>
<svg version="1.1" id="Layer_1" x="0px" y="0px" viewBox="0 0 512 512" style="enable-background:new 0 0 512 512;" xmlns="http://www.w3.org/2000/svg">
  <style type="text/css">
	.st0{fill:#2B374C;}
	.st1{fill:#F4BF2A;}
</style>
  <g>
    <circle class="st0" cx="255.7" cy="256.5" r="168"/>
    <path class="st1" d="M466,256.5c0-42.3-13.2-84-36.8-119.4V85.7c0-1.4-1.4-2.8-2.8-2.8h-51.4c-71.5-49.3-165.9-49.3-237.4,0H86.3 c-0.7,0-1.4,0-2.1,0.7c-0.7,0.7-0.7,1.4-0.7,2.1v50.7c-50,72.2-50,167.3,0,239.5v50.7c0,1.4,1.4,2.8,2.8,2.8h51.4 c72.2,49.3,166.6,48.6,238.8-0.7h50.7c1.4,0,2.8-1.4,2.8-3.5l0,0v-50.7C453.5,340.5,466,298.9,466,256.5z M73.8,256.5 c0-100.7,81.2-181.9,181.9-181.9s181.9,81.2,181.9,181.9s-81.2,181.9-181.9,181.9l0,0l0,0C155,438.4,73.8,357.2,73.8,256.5z"/>
  </g>
  <path d="M 281.241 148.5 C 272.16 164.406 269.778 183.63 284.073 182.027 C 295.676 180.727 291.954 162.601 281.243 148.5 L 281.241 148.5 Z M 222.333 150.427 C 214.093 166.719 212.717 186.025 226.912 183.79 C 238.432 181.975 233.771 164.037 222.333 150.426 L 222.333 150.427 Z M 329.397 186.742 C 318.814 201.378 314.598 220.146 329.005 220.331 C 340.7 220.483 338.724 202.045 329.397 186.742 Z M 176.092 188.31 C 168.03 204.171 167.596 222.618 179.285 221.642 C 193.686 220.438 187.897 202.102 176.092 188.31 Z M 280.972 192.345 C 254.167 193.436 256.716 249.571 282.22 248.544 C 307.293 247.536 307.342 191.277 280.97 192.346 L 280.972 192.345 Z M 229.352 193.234 C 228.953 193.241 228.557 193.275 228.147 193.309 C 201.434 195.616 206.974 251.558 232.394 249.371 C 256.992 247.26 254.505 192.776 229.352 193.234 Z M 189.406 233.452 C 188.63 233.443 187.844 233.483 187.026 233.587 C 160.446 236.955 168.602 292.634 193.895 289.438 C 217.982 286.398 213.486 233.729 189.406 233.452 Z M 323.702 234.1 C 296.879 233.604 295.512 289.771 321.037 290.251 C 346.128 290.727 350.094 234.589 323.702 234.1 Z M 253.814 266.498 C 226.331 267.105 247.553 295.508 198.971 312.018 C 161.316 324.814 184.122 363.366 216.352 363.5 C 234.043 363.574 240.355 349.611 254.837 349.673 C 271.282 349.743 272.596 362.27 296.666 362.371 C 327.398 362.498 345.186 323.715 310.026 310.541 C 265.261 293.769 283.999 266.782 255.168 266.498 C 254.706 266.494 254.249 266.49 253.814 266.498 Z" fill="#fff" fill-opacity="1"/>
</svg>