<svg viewBox="48.169 65.43 235.792 300" width="235.784" height="300" xmlns="http://www.w3.org/2000/svg"><path fill-rule="evenodd" fill="#FFF" d="M165.101 65.43c.396.013.478.09.771.159.28.478.701.95.943 1.467.747 2.115 1.485 4.231 2.232 6.347.898 2.021 1.917 3.881 3.173 5.532.663.873 2.313 2.97 3.684 3.009.694-.721 3.646-1.492 4.799-1.951 2.836-1.141 6.023-1.937 9.082-2.932.58-.191 1.02-.076 1.626-.242 1.452-.402 3.224-.612 4.799-.975 1.803-.414 7.679-.67 7.884.969-.032.032-.051.057-.083.089-.963-.012-1.893.35-2.658.568-.86.242-1.536.133-2.396.407-.173.051-.498.274-.689.325-5.341 1.447-12.797 3.69-14.397 8.464v.567c-.58 2.384.962 3.684 1.714 5.048.077 0 .089.006.16.006 1.153-1.599 5.863-1.937 8.317-2.53 2.83-.688 6.112-.663 9.082-1.3h.95l3.492-.637h1.192l2.638.637h1.708s3.263-.554 4.685-.86c.867-.186 3.409-.415 3.409-.415h3.156s4.25.708 6.047 1.185c.759.199 2.557.727 2.557.727h-.173s-1.415-.006-2.128.21c-.962.287-2.346.21-3.321.338-1.032.135-3.581.727-3.581.727h-.81c-.363.108-1.109.337-1.498.44-.293.076-.523-.14-.707-.09-.09.09-.179.179-.268.262-1.013.363-2.033.261-3.085.618-1.07.363-2.434.88-3.442 1.409-1.382.726-3.798 2.422-2.472 4.671.178.3.306.828.618.969h2.607c.37-.236 1.007-.006 1.466 0 1.294.019 2.715.051 3.881.083 5.08.14 9.987.88 14.22 1.892.082.154.107.147.171.345-.057.025-.115.057-.171.083-.791.49-2.595.541-3.621.777h-1.204c-.702.192-1.645.109-2.441.325-2.888.791-6.227.848-8.872 1.791-1.587.567-4.468 1.091-4.481 3.091.083.026.166.058.243.084.541.343 1.866-.02 2.364-.167 2.103-.612 4.282-1.076 6.514-1.624 2.045-.504 4.55-.179 6.188.324h1.166c.765.121 1.517.243 2.282.363 2.868.912 5.271 2.123 7.438 3.684 1.057.758 3.34 2.155 3.46 3.71-.076.076-.114.146-.171.255-.79.088-1.658.178-2.531-.083-2.377-.708-4.83-1.096-7.419-1.689-.969-.217-3.046.255-3.543 0-1.511.854-2.199 1.702-2.193 4.13 2.021 1.306 3.862 2.167 6.578 2.868 2.154.554 6.118.497 8.266 0 .752-.172 1.281.012 2.027-.166 3.122-.759 6.513-1.077 9.611-1.855l6.156-.841c.772-.172 1.6-.019 2.276-.166h2.989c1.026-.216 2.715.083 3.595.332 3.174.892 5.277 2.077 6.94 4.429.879 1.243 2.141 2.875 1.67 4.933-.172.09-.446.204-.586.332-1.466-.312-2.499-1.523-3.595-2.257-2.084-1.389-4.067-2.446-6.775-3.256-.79-.236-3.103-.714-3.85-.504-4.429 1.275-7.908 2.957-12.211 4.347-2.236.727-4.531 1.198-6.774 1.842h-1.097c-.268.064-.797.267-1.026.344-.459.032-.918.057-1.371.089-3.256.752-8.362 1.02-11.49.083-.74-.217-1.23-.115-1.887-.344-3.206-1.122-5.647-2.646-7.119-5.488-.49-.943-1.288-2.938-.854-4.716.229-.962.389-2.103.771-3.002.211-.497.573-.994.689-1.632h-.026c-.312.409-.758.409-1.211.695-.471.294-1.013.708-1.472 1.039-.146.032-.287.057-.434.089-.146.173-.287.345-.433.516-.255.135-.471.039-.695.173-1.836 1.096-3.9 1.956-6.227 2.594h-1.287s-2.983-.071-4.092-.459c-2.345-.816-3.46-2.015-5.194-3.32-.529-.402-1.249-.906-1.619-1.447-.688-1.014-1.084-2.46-1.446-3.748-.453-1.575.28-3.091.764-4.002.192-.363.166-.727.338-1.11.357-.783.892-1.637 1.364-2.383.555-.88 1.447-1.766 1.791-2.81l-.083-.083c-1.3-.096-1.676-.109-2.638.254-.427.167-1.491-.076-2.129.09-1.313.331-2.913.567-4.174.937-.561.165-1.014-.026-1.62.172-.261.083-.732.337-1.02.427-.79.242-1.427.184-2.217.426-3.856 1.179-7.292 2.238-10.822 3.831-.72.325-1.575.861-2.218 1.275-.275.179-.618.095-.937.254-.599.3-1.097.625-1.791.937-.79.357-1.478 1.014-2.556 1.109-.057-.159-.083-.33-.083-.593.224-.299.051-.643.173-1.108.146-.548.28-1.619.184-2.211v-1.536c.548-1.613.389-5.189.07-6.387-.063-.242.242-.248.172-.593-.152-.79-.561-1.612-.854-2.3-.541-1.288-.879-2.83-2.728-2.811-.274.235-.719.402-.936.682-.771.988-1.51 2.32-1.963 3.576-.306.853.14 1.81-.09 2.893-.541 2.644.224 8.036.682 10.216-.178.096-.158.122-.426.172-.599-.414-1.416-.471-2.047-.854-1.688-1.013-3.447-1.847-5.366-2.638-1.491-.612-3.154-1.408-4.69-2.046-1.409-.586-2.996-.899-4.347-1.447-.255-.032-.51-.057-.765-.089-1.319-.478-2.957-.803-4.346-1.192-.492-.14-.854-.006-1.365-.172-2.612-.835-6.137-1.313-9.254-1.274v.083c.95.79 1.326 1.898 1.925 2.81.963 1.459 2.078 3.231 2.556 5.111.504 1.97-.612 4.947-1.364 6.049-.35.516-1.033.982-1.536 1.363-.319.243-.535.689-.854.937-.644.511-1.345.817-2.045 1.275-.944.618-3.321 2.371-3.321 2.371h-.854s-1.498-.146-2.301-.331c-.452-.102-1.16.006-1.702-.172-.077-.026-.267-.229-.338-.255-.745-.28-1.446-.192-2.129-.511-.682-.312-1.453-.815-2.128-1.108-.249-.109-.465-.045-.682-.172-.28-.166-.579-.504-.854-.682-.611-.402-1.255-.554-1.874-.937-.656-.402-1.338-1.033-2.256-1.275v.083c.682.784.829 1.913 1.147 2.893 2.148 6.59-3.313 10.268-7.922 11.67-7.418 2.257-17.776-.146-24.028-2.466-1.491-.555-2.848-.816-4.346-1.364-1.823-.663-3.754-1.791-5.621-2.384-.669-.21-1.428-.115-2.047-.255-1.076-.242-2.536.185-3.319.427-3.053.937-5.323 2.218-7.668 3.831-.931.637-1.785 1.797-3.238 1.873-.089-.146-.216-.306-.338-.426-.038-2.709 1.085-3.952 2.212-5.45 1.389-1.842 3.525-3.141 5.966-3.913 1.867-.593 5.825-.663 8.011-.255 1.001.184 2.555-.019 3.748.255 3.409.784 7.036.988 10.312 1.874l5.882.937c.823.025 1.645.057 2.473.082 3.04.644 7.049-.522 8.948-1.447.803-.388 2.824-.987 2.837-1.701v-1.275c.235-.127.299-.306.229-.509-.184-.555-.535-1.25-.937-1.62-1.912-1.746-7.795-.388-10.057.256-.95.268-3.907 1.319-4.773.681-.141-.152-.147-.216-.173-.509.28-.332.421-.758.682-1.109.255-.344.676-.586 1.026-.854l.937-.937c2.212-1.594 4.754-3.066 7.584-4.003 1.154-.382 2.269-.28 3.582-.592 1.587-.383 3.971-.886 5.966-.428 1.874.434 3.741.638 5.539 1.192 1.357.415 2.803.899 4.429.855.165-.237.229-.173.255-.599-.625-.631-1.001-1.307-1.791-1.791-.822-.504-1.727-.606-2.728-.937-1.988-.657-4.365-1.008-6.565-1.53-1.281-.306-2.466-.242-3.665-.51-1.542-.35-3.173-.312-4.601-.682-.695-.179-1.702-.491-1.702-.491h-.178c1.083-.809 3.403-.649 4.971-1.019 4.889-1.154 11.364-1.001 17.061-1.02.255-.395.689-.803.861-1.274.873-2.48-2.046-3.742-3.429-4.424-2.319-1.135-5.284-1.555-8.056-2.294l-2.058-.172c-2.473-.562-5.271-.911-8.145-.937-.02-.077-.02-.07-.039-.154 1.734-.911 4.226-.809 6.387-1.293.847-.191 1.784-.012 2.485-.172h3.256c.492-.096 1.778-.159 2.486 0 1.237.274 2.811-.166 3.946.083 1.051.229 2.212-.045 3.173.172 1.32.293 2.473-.121 3.774.172 2.784.625 6.054.375 8.743 1.019.855.083 1.715.173 2.569.255 2.517.612 5.232.753 7.629 1.53.759.249 1.81.523 2.486.937.331.198.535.567.943.682.535-1.046 1.332-1.861 1.714-3.143.88-2.95-1.478-5.422-2.912-6.455-4.602-3.327-10.694-5.176-17.316-6.546v-.019c1.905-1.402 6.793-.975 9.337-.325 1.025.16 2.058.325 3.084.49 2.938.849 5.978 1.365 8.738 2.442 1.714.669 3.505 1.243 5.227 1.957.777.318 1.56.905 2.484 1.057.702-1.038 1.97-1.765 2.741-2.766 1.466-1.905 2.843-3.938 3.856-6.265.541-1.248.835-2.715 1.198-4.066.396-1.568.122-2.67 1.262-3.588Zm24.964 14.761c.032.223-.063.114.173.172v-.083c-.058-.032-.115-.063-.173-.089Zm-25.257 9.541h-.064v.637h.638v-.134c-.548-.083-.561-.197-.574-.503Zm1.849 1.102c.069.09.032.026.082.172h-.082v-.172Zm31.127 10.306c.032.025.172.044.082.172-.088-.045-.261-.152-.082-.172Zm58.972 21.733h.173c-.103.14-.039.103-.173 0Zm.23 0h.172v.083c-.146-.051-.083-.012-.172-.083ZM81.757 135.544c-.255 1.898-1.887 3.473-3.232 4.327-.548.351-1.109.471-1.612.847-.274.205-.892.67-1.102.931-.083.109-.051.274-.173.338h-.713c-.166.197-.338.389-.504.586-1.625 1.224-2.868 2.651-4.104 4.271-.74.968-1.772 1.784-2.18 3.096.216.032.108-.062.166.167-.07.083-.032.025-.083.165h-.695c-.114-.21.038-.058-.178-.172-1.365 2.581-3.199 5.45-3.359 9.095h.178c.281-.21.498-.089.887-.255.242-.102.452-.484.706-.599 3.729-1.651 5.443 1.44 6.539 3.773.377.803.969 1.759 1.147 2.746.67-.095 1.186-.509 1.677-.77.204-.032.414-.058.618-.09.536-.197 1.192-.49 1.676-.771v-.083c-.184-.032-.171-.019-.267-.083 1.727.045 3.919-.803 5.563-1.287.631-.185 1.243.026 1.945-.172 2.358-.669 5.914-.408 8.126.255 1.344.401 3.467.962 3.62 2.402-.669.409-1.339.963-2.034 1.371-.758.452-1.567.663-2.383 1.032-1.651.74-3.302 1.645-4.946 2.486-4.703 2.422-9.145 6.068-12.103 10.21-.178.146-.35.287-.529.428-.567.898-.95 1.72-1.504 2.657-.146.14-.293.287-.439.427-.657 1.358-.957 3.155-1.416 4.634-.191.612-.057 1.076-.268 1.714-1.083 3.327-1.325 7.221-2.294 10.726v3.55l-1.275 6.641v2.046l.638 7.151v1.192l1.275 4.685v.178c.287-.204.229-.364.421-.683.235-.394.739-.732 1.006-1.108.103-.141.115-.415.255-.51.911-.631 2.09-.93 3.111-1.446 2.116-1.084 4.607-2.028 7.054-2.811 1.123-.358 2.429-.409 3.526-.683 1.064-.025 2.128-.057 3.192-.082 1.231-.109 2.652-.013 3.946.337 2.147.593 4.098 1.403 5.71 2.556.255.255.504.51.758.765 1.345 1.001 4.073 3.894 3.614 6.303h-.166c-.516.312-1.383-.344-1.765-.51-1.587-.701-3.219-1.326-4.869-1.874-1.702-.567-5.131-1-7.138-.426-1.626.465-2.888 1.427-4.118 2.3-.357.249-.58.752-.841 1.109l-.669.593c-.931 1.352-1.753 2.944-2.435 4.512-.249.567-.146 1.027-.337 1.702-.504 1.797-.937 3.951-1.594 5.704-2.779 7.394-6.246 14.277-13.607 17.03-.472.179-.81.025-1.345.172-4.347 1.166-8.502-1.861-9.744-4.767-.575-1.345-.562-3.761 0-5.112.936-2.256 3.058-4.002 5.461-4.767.943-.299 2.161-.172 3.111-.509-.447-1.224-.409-2.633-.759-4.003-.694-2.741-.778-5.915-1.428-8.77-.274-1.211-.165-2.473-.42-3.576-.331-1.427-.115-3.066-.421-4.429l-.248-5.794c-.141-.662.083-1.695-.083-2.472-.236-1.116-.242-3.913 0-5.023v-1.835l.299-5.43.631-5.698c.197-.803.178-1.752.428-2.632.312-1.122.719-2.428.764-3.735h-.172c-.306.204-1.071.051-1.529.083-.944.077-2.945.108-3.315-.676-.293-.452-.012-1.529 0-2.039.052-1.855.472-3.569.848-5.092-.026-.032-.038-.052-.064-.083-1.911-.045-3.308-.988-5.028-1.103-1.702-2.581-2.326-6.985-1.357-10.955.229-.95.101-1.722.336-2.633 2.454-9.426 5.488-16.915 10.453-23.772.255-.351 1.129-1.447 1.447-1.695.134-.109.313-.128.427-.256.516-.58.905-1.312 1.529-1.785.255-.191.619-.286.848-.509.173-.166.223-.459.427-.593.504-.351 2.543-1.332 2.632-1.868-1.446-1.025-2.619-5.729-1.867-8.323.803-2.779 2.849-4.583 5.781-5.264.573-.134 1.593-.013 2.039.082.599.134.988-.037 1.53.173 1.867.719 3.46 1.924 4.671 3.314.186.21.192.522.338.764.248.402.605.841.847 1.275l.173.593c.185.197.554.159.937.172.733.446 1.823.331 2.722.592 1.121.332 2.326.759 3.313 1.192.918.402 2.021.676 2.122 1.868-.229.242-.343.624-.592.847-1.306 1.16-5.8 1.167-8.164 1.448Zm184.884 23.842c-.458-5.239-3.333-10.045-6.137-13.027-.229-.242-.312-.587-.509-.854-.218-.287-.599-.427-.855-.682-.713-.714-1.319-1.6-2.128-2.211-.778-.587-1.619-1.085-2.39-1.702-.293-.236-.612-.663-.937-.855-.332-.191-.606-.152-.937-.337-1.224-.688-2.925-2.683-3.155-4.34-3.403.07-7.17-.287-8.694-2.129.045-.223.077-.376.09-.682.516-.344 1.536-1.402 1.536-1.402h1.224c2.077-.803 4.251-1.351 6.729-1.874 1.384-2.613 2.875-4.627 5.571-5.876.758-.351 1.606-.427 2.664-.427 3.537 0 5.769 1.835 6.73 4.43.823 2.211.472 5.315-.331 7.239-.318.759-1.071 1.371-1.249 2.212 2.44.79 5.386 4.149 6.813 6.132 3.174 4.397 5.914 9.336 7.979 14.9.982 2.652 1.543 5.481 2.409 8.26.058.453.109.911.167 1.364.649 2.498 1.076 6.52.497 9.024-.026.396-.058.798-.084 1.192-.267.95-.701 2.454-1.414 2.983-.364.268-.854.147-1.333.338-1.057.427-2.587.58-3.626.866-.012.032-.018.039-.031.064.452 1.179 1.312 5.832.751 7.33-.975.586-3.633.899-4.818.427v.51c.466.701.427 2.281.663 3.238.612 2.459.58 5.366 1.16 8.004.025.963.057 1.931.083 2.894.248 1.179.057 2.619.146 4.009.077 1.256.102 3.308.026 4.563-.21 3.397.115 7.597-.587 10.847-.299 1.39-.127 2.894-.413 4.175-.3 1.345-.096 2.575-.415 3.919-.357 1.498-.484 3.308-.835 4.768-.057.567-.108 1.134-.166 1.702-.362 1.357-.777 3.014-.828 4.511.338.122.943.09 1.414.09.625.408 1.945.447 2.664.765 1.874.841 3.665 2.517 4.405 4.513.644 1.727.268 4.078-.415 5.366-.229.433-.312.816-.58 1.192-1.44 2.033-5.544 4.187-9.394 3.148-.58-.197-1.167-.396-1.746-.593-6.769-3.008-9.554-9.706-12.383-16.775-.619-1.536-1.014-3.543-1.498-5.111-.16-.523 0-.841-.166-1.364-.88-2.753-2.842-6.023-4.901-7.578-3.754-2.836-8.674-2.046-12.887-.255-1.071.453-2.084.835-3.079 1.275-.471.21-1.051.274-1.249-.172-.388-.675.74-2.466.995-2.894 1.427-2.351 3.173-3.996 5.736-5.194.905-.42 2.02-.943 3.078-1.274.727-.23 1.491-.192 1.995-.338 1.019-.306 2.333.152 3.409 0 1.078-.154 2.818.223 3.825.509.835.236 1.466.122 2.243.428 1.861.732 3.856 1.498 5.57 2.3 2.403 1.122 4.456 1.823 5.488 4.34.013 0 .013 0 .025.007.644-.842.491-2.62.809-3.837.568-2.161.798-6.851.415-9.197-.223-1.395.006-2.83-.248-4.002v-1.236l-1.275-4.175v-.854s-.122-3.104-.638-4.43v-.854c-.866-3.817-1.37-7.947-2.479-11.58-.159-.51-.076-.841-.255-1.364-.338-.975-1.121-1.886-1.618-2.728-1.485-2.498-3.27-4.843-5.539-6.558-.427-.427-.854-.854-1.275-1.281-1.931-1.434-4.002-2.907-6.137-4.086-1.74-.961-3.614-1.72-5.283-2.727-.899-.536-3.538-1.287-3.665-2.384.312-.337.464-.848.853-1.109 3.978-2.702 12.658-1.549 16.871.173 1.058.433 2.262.739 3.321 1.274.343.173.605.427 1.109.51.631-2.333 1.784-4.997 3.581-6.214.504-.338 1.345-.937 2.384-.682 1.262.319 2.135 1.268 3.154 1.453Zm-110.265-23.174c-.013-3.505.173-6.341.421-9.834.197-.152.3-.445.497-.58 1.039-.719 2.193-.58 3.588-.496.3.439.753.637.918 1.249.025 1.721.057 3.441.083 5.168.369 2.276.146 5.921.248 8.586.02.509 1.026.866 1.332 1.166.389.375 1.135 1.077 1.422 1.498.248.369.242.879.497 1.248v-.165c.178-.229.178-.58.331-.835.351-.567 1.058-1.352 1.587-1.746.408-.306 1.071-.561 1.167-1.166.318-.53.165-2.735.165-3.582l.248-7.082c0-.866-.095-2.899.249-3.415.395-1.333 2.976-1.275 4.086-.586.293.184.503.592.751.834 0 .644.045 1.364.167 1.918.248 1.116-.052 2.365.165 3.333v4.418l.089.088c1.218.052 1.868.848 2.416 1.581.248.249.503.497.751.752.734 1.122 1.25 3.627.835 5.501-.024.579-.056 1.166-.082 1.746-1.052 3.429-5.965 5.507-9.337 6.75-.758.28-3.028 1.331-4.085 1.083-2.219-.516-4.418-1.46-6.252-2.416-.402-.21-.855-.255-1.25-.497-.828-.517-1.638-1.211-2.415-1.752-.982-.676-1.977-1.568-2.422-2.747-.37-.995-.032-2.199-.249-3.417-.478-2.696 1.753-6.507 4.079-6.603Zm-68.692-5.691h.172c-.102.141-.039.102-.172 0Zm113.618 6.157c2.874.064 5.118 2.754 6.392 4.513 1.236 1.701 2.569 3.53 3.582 5.448.93 1.765 1.568 3.532 2.473 5.366.746 1.511 1.53 3.239 2.046 4.94.752 2.473.879 6.443 0 8.859-.797 2.173-3.397 4.283-5.201 5.539-.497.344-.956.924-1.446 1.275-3.162 2.262-6.667 4.403-10.739 5.703h-.682c-.574.147-1.371.293-2.046.427-1.747 3.053-2.346 8.955-1.192 13.117.223.809.146 1.613.51 2.3.312.586 1.491.912 2.045 1.281 1.275.842 2.518 1.811 3.748 2.728.484.357.886.918 1.364 1.275 3.499 2.626 6.443 6.367 7.839 11.071v.854c.944 3.907-.076 8.591-1.02 11.669-2.791 9.088-8.782 17.163-15.678 22.142-2.702 1.949-7.011 5.111-12.014 3.83-3.487-.893-6.393-2.206-8.267-4.684-.197-.173-.394-.338-.599-.511-1.229-1.689-2.37-3.614-3.154-5.704-.447-1.198-.771-2.517-1.109-3.747-.179-.663.013-1.173-.172-1.874-.159-.612-.523-2.454-.338-3.238.644-2.747 2.014-5.047 3.32-7.151.804-1.294 1.378-2.574 2.219-3.83 1.727-2.575 3.594-5.086 5.366-7.668.242-.349.695-.668.937-1.019 1.032-1.51 2.02-2.931 3.066-4.429.401-.58 1.248-1.339 1.363-2.129.096-.695-.35-1.855-.509-2.473-.434-1.676-.364-3.027-.766-4.596-.388-1.528-.197-3.109-.681-4.601-.376-1.153-1.014-2.511-1.447-3.664-.529-1.39-.714-2.716-1.281-4.085-1.192-2.919-2.141-6.145-3.238-9.115-.337-.918-.42-1.714-.765-2.638-.338-.893-.866-1.95-1.108-2.893-.128-.498.159-.963.255-1.275.305-1.001.35-2.193 1.446-2.384.46.535 1.301.682 1.964 1.02 1.791.917 3.74 1.599 5.792 2.301 2.467.841 5.022 1.529 7.667 2.3.479.141 2.206.86 2.64.765 2.065-.427 3.212-2.256 4.263-3.748 1.67-2.383 2.67-5.238 3.748-8.259.413-1.166.363-2.308.682-3.575.439-1.734.624-4.367.255-6.304-2.747-.765-4.711.459-6.731 1.364-3.403 1.529-6.348 3.562-9.286 5.539-1.102.738-2.243 1.286-3.321 2.045-1.395.976-2.899 2.193-4.518 2.893-.542.236-1.785.561-2.384.173-.93-.256-1.785-2.664-1.447-4.174.109-.492.23-.957.255-1.536.281-.186.357-.479.599-.683 1.135-.962 2.11-2.02 3.156-3.066 1.981-1.975 4.219-3.664 6.303-5.538.14-.127.197-.395.338-.51.529-.439 1.07-.784 1.618-1.192.173-.197.338-.394.511-.599 3.154-2.307 6.156-4.71 9.629-6.73.714-.414 1.989-.803 2.811-1.02.325-.095.714.045.937-.095Zm-72.286.274c3.332-.077 5.18 1.344 7.157 2.638 1.688 1.103 3.256 2.161 4.856 3.321 1.536 1.115 2.894 2.511 4.43 3.665.197.229.394.452.599.681.407.306.784.543 1.192.854.337.37.681.74 1.019 1.11.804.612 1.562 1.28 2.301 1.956.369.395.739.797 1.109 1.192.319.242.777.459 1.019.765 1.536 1.931 4.232 2.945 3.156 6.73-.242.86-.313 1.759-1.109 2.046-1.179 1.084-4.443-1.141-5.284-1.702-2.874-1.912-5.767-3.939-8.694-5.793-1.038-.656-2.084-1.064-3.154-1.702-.701-.421-1.536-1.02-2.3-1.363-1.365-.612-2.741-1.199-4.265-1.62-.803-.222-2.492-.133-2.727.428-.396.586-.204 2.339-.172 3.237.095 2.626.758 5.411 1.535 7.496 1.237 3.32 2.289 6.245 4.43 8.597.025.115.057.229.082.338.606.835 1.926 1.784 3.066 2.046.389.089 1.147-.332 1.447-.428.95-.312 1.893-.49 2.728-.764h.509c1.62-.484 3.455-1.211 5.03-1.702 1.338-.414 2.51-.656 3.747-1.191.937-.402 1.95-.843 2.899-1.275.67-.313 1.224-.893 2.129-.937.09.07.026.032.173.089.446.841.867 1.682 1.109 2.81.171.81-.396 1.581-.599 2.129-.67 1.791-1.16 3.582-1.791 5.278-.918 2.485-1.434 4.919-2.384 7.412-1.033 2.709-2.174 5.653-3.066 8.432-.433 1.344-.255 2.677-.599 4.085-.426 1.746-.458 3.722-.937 5.538-.114.447-.522 1.422-.338 2.047.25.866 1.155 1.611 1.619 2.3.058.172.115.338.172.51.797 1.204 1.9 2.313 2.728 3.493 2.409 3.409 4.647 6.787 6.986 10.305 1.778 2.677 3.759 5.66 4.684 9.115.121.458-.045 1.198-.083 1.528-.223 1.919-.408 3.819-.937 5.539-1.778 5.781-4.321 9.86-9.63 12.096-1.02.428-2.276.734-3.492 1.021-.568.031-1.135.057-1.703.083-.114.025-.432.139-.681.088-.982-.21-2.047-.159-2.9-.509-9.624-3.971-17.381-13.601-21.134-23.505-1.632-4.309-3.231-11.798-1.027-16.947 1.836-4.283 6.126-8.489 9.714-11.071 1.083-.777 2.217-1.599 3.32-2.3.338-.217.842-.306 1.109-.593.46-.491.465-1.937.682-2.728.848-3.065.663-7.316-.254-10.134-.231-.706-.524-2.415-1.021-2.728-.49-.286-1.287-.082-1.874-.254-1.127-.332-2.319-.778-3.32-1.192l-.765-.172c-4.028-2.148-7.769-4.467-10.911-7.495-.962-.924-2.141-1.784-2.81-2.983-1.753-3.129-.772-8.509.338-11.415 1.433-3.735 3.001-7.131 4.938-10.306.944-1.548 1.734-3.192 2.9-4.512.899-1.019 2.066-2.173 3.239-2.893.541-.345 1.35-.389 1.81-.784Zm-46.272 2.256c.274.07.128-.039.256.172-.032.026-.058.057-.09.083-.025-.031-.057-.057-.083-.083-.07-.089-.032-.025-.083-.172Zm-18.151.873c-.057-.675-.115-.561-.171-.638h.254c.095.058.089.116.172-.069.032-.032.058-.057.083.707h-.338Zm-.344-.638c-.159.46-.191.377-.255.638h.083c.108-.114.178-.133.255-.638h-.083Zm100.617 23.583h.171c-.006.809-.376 1.554-.599 2.211-.509 1.529-.726 3.237-1.192 4.685-.222.681-.108 1.192-.338 1.873-.847 2.511-1.179 5.265-1.962 7.922-.453 1.537-1.613 5.316-1.281 6.813 2.026 1.351 6.118 1.836 9.203 1.109 1.128-.268 2.932-.248 3.065-1.447.198-.299.02-1.057-.083-1.446-.375-1.396-.516-3.047-1.025-4.43-.791-2.154-.937-4.499-1.62-6.724-.631-2.078-.924-4.327-1.618-6.475-.414-1.281-.816-2.734-1.109-4.085h.172v.082c.446.345.548.956.854 1.447.924 1.485 1.791 2.989 2.638 4.595 2.652 5.016 5.705 10.057 7.667 15.755.836 2.422 1.467 6.125 0 8.343-2.09 3.168-8.285 2.894-13.467 2.894-1.847 0-3.409.101-4.939-.255-.695-.16-1.243.038-1.874-.173-1.573-.509-3.096-1.211-3.919-2.466-1.255-1.918-.841-5.902 0-8.005 1.434-3.601 3.002-7.144 4.773-10.388.772-1.415 1.25-2.805 2.047-4.175 1.089-1.874 2.147-3.779 3.237-5.704.369-.638.88-1.224 1.199-1.956Zm113.28 33.663c2.568-.012 3.983 1.639 4.512 3.665.242.925-.338 1.766-.255 2.384.051.407.319.987.427 1.363.179.638.134 1.479.255 2.046.153.689-.115 1.734-.255 2.302-.587 2.281-1.931 4.958-4.002 5.621v-.083c-.07-.103-.064-.14-.09-.338.37-.414.332-1.186.51-1.791.389-1.3.982-6.233 0-7.323-.146-.166-.433-.006-.682-.083-.503-.165-1.109-.471-1.535-.764-1.378-.956-2.353-3.888-1.11-5.704.242-.351.867-.848 1.281-1.021.313-.152.689-.102.944-.274Zm-226.166.116h1.619c2.493.687 3.034 3.791 1.536 5.959-.344.496-1.153 1.172-1.708 1.446-.388.197-.918.114-1.281.338-.491.51-.325 1.364-.51 2.211-.593 2.741.733 5.067.937 7.24-.032.026-.058.058-.089.084-.147-.052-.083-.02-.172-.084-1.562-.496-3.097-2.867-3.665-4.429-.146-.402-.063-.65-.172-1.109-.141-.573-.421-1.529-.255-2.301.134-.612.071-1.389.255-2.046.096-.338.357-.943.427-1.275.07-.356-.198-.605-.255-.854-.204-.815.038-1.949.255-2.465.313-.747 1.058-1.696 1.702-2.129.465-.192.924-.389 1.376-.586Zm103.625.636h17.552c2.664 0 6.004-.069 7.074 1.53 1.116 1.664.3 5.042-.509 6.386-3.161 5.251-6.495 10.42-9.969 15.328-.815 1.154-2.728 4.226-4.429 4.258-.255-.217-.58-.312-.854-.511-.886-.656-1.562-1.733-2.218-2.638-.255-.357-.688-.663-.936-1.02-1.205-1.746-2.263-3.467-3.41-5.277-1.919-3.04-3.894-6.188-5.794-9.28-.28-.458-.618-1.025-.764-1.536-.338-1.159-.555-5.092 0-6.047.567-.976 2.135-.817 3.41-1.11.299-.07.643.045.847-.083Zm105.753 62.861c-1.613-.159-6.966-.925-7.074.937 4.971 4.557 11.963 7.049 15.595 12.944 1.065 1.727 1.161 4.583.172 6.475-1.664 3.181-5.347 4.742-9.031 5.959-.994.332-3.856.937-3.856.937v-.171s7.273-5.259 8.12-8.687c.242-.982-.121-2.161-.338-2.728-.859-2.204-2.734-3.855-5.028-4.429-.586-.148-.988.299-1.365.426-1.14.383-2.223.695-3.064 1.364-.644 1.747.56 3.696-1.11 4.768-2.658 1.707-6.43-.345-6.392-3.238.255-.312.338-.625.681-.855.88-.655 2.066.071 3.239-.255 1.472-.407 1.701-3.702 1.701-5.621-.962-.631-2.212-1.555-2.899-2.466-.3-.401-.995-1.766-1.192-1.957v.084c-.976.936-1.282 2.262-1.874 3.409-1.192 2.313-2.065 4.94-2.9 7.668-.357 1.166-.28 2.236-.599 3.492-.243.962-.243 2.364-.338 3.32-.064.625-.255 1.804-.083 2.556.344 1.536.07 3.2.427 4.685.369 1.529 1.167 4.014.854 5.703-.312.205-.376.332-.937.338-.261-.223-.65-.319-.854-.599-.605-.822-.866-1.765-1.364-2.728-.458-.879-1.07-1.772-1.618-2.555-.504-.721-1.211-1.969-2.212-2.129-.51.784-1.479 1.307-2.129 1.957-1.74 1.74-3.633 3.556-5.112 5.538-2.46 3.295-4.588 6.718-6.564 10.561-1.109 2.161-1.708 4.818-2.473 7.24l-.172 1.791c-.695 2.575-.421 6.099-.427 9.197-.758.535-1.287 1.224-2.472.599-.326-.173-.542-.154-.683-.511-.796-.866-.464-2.848-.764-4.256-.211-.976.063-2.148-.173-3.238-.261-1.204-.261-4.245 0-5.449.141-.663-.032-1.575.083-2.129.026-.995.058-1.988.084-2.983.706-3.295-.058-5.838-1.11-8.26-1.924-4.436-5.793-8.279-11.676-8.686-.765 1.682-2.014 2.963-3.92 3.492-5.194 1.44-8.718-4.735-5.965-8.77 1.803-2.638 5.806-2.67 9.12-1.447.606.223 1.154.23 1.702.51 2.594 1.332 5.047 2.709 7.33 4.341 1.962 1.408 3.614 3.231 5.538 4.684.44.331.695.924 1.109 1.275.968.828 1.969 1.778 2.81 2.728.51.573.989 1.529 1.702 1.873.204-.643.905-1.186 1.281-1.702.708-.975 1.415-2.065 2.046-3.066 1.058-1.675 1.976-3.543 2.894-5.283.178-.338.236-.924.337-1.108.115-.204.408-.441.511-.683.273-.624.286-1.275.599-1.874.28-.548.783-1.223 1.019-1.791.07-.171-.121-.267-.082-.337.146-.305.599-.695.764-1.02l.173-.765c.12-.274.471-.593.592-.854.344-.707.414-1.325.765-2.046.274-.56.733-1.038.854-1.79-.217-.032-.134.051-.172-.255.758-.268.688-1.001 1.019-1.702.682-1.44 1.472-3.072 2.046-4.602.217-.58.179-1.038.427-1.619.822-1.911 1.568-4.149 2.219-6.214.337-1.07.324-1.981.681-3.065 1.606-4.92 2.301-10.815 2.301-17.119-.249-.159-.249-.235-.682-.254-.899-.58-2.613-.128-3.492.088-.963.23-2.576.058-3.41-.255-2.11-.79-5.099-3.378-3.238-6.385.784-1.269 3.837-2.722 3.837-2.722h.682s5.099.918 6.819 1.956c.612.37 1.211.542 1.791.938 2.492 1.688 4.5 4.365 5.538 7.495.389 1.166.555 2.46.714 3.665v.937c.472 1.509.784 5.397.396 7.15-.032.739-.058 1.479-.09 2.211-.216.963-.248 2.11-.592 3.053h.254c2.04-2.268 5.889-1.587 7.502.523.415.541 1.109.93 1.198 1.791ZM92.12 231.392c2.925.007 5.111 1.205 6.087 3.148.847 1.69-.218 3.959-1.198 4.686-.893.656-2.034 1.236-3.257 1.529-1.103.268-2.665-.076-3.43-.256-.937-.216-2.377.02-3.001.256-.071.127-.153.242-.255.338-.013.662.051 1.332.171 1.873.199.905-.229 1.772 0 2.811.524 2.32.453 4.844 1.027 6.985v.765c.554 2.142.956 4.609 1.714 6.558.236.612.141 1.115.344 1.702.58 1.715 1.053 3.455 1.715 5.194 2.256 5.915 4.888 11.523 7.629 16.947.606 1.198.816 2.505 1.453 3.665 1.192 2.148 2.549 4.315 3.773 6.386.472.797 2.045 3.512 2.74 3.83 1.224-1.854 3.385-3.549 4.972-5.111 2.639-2.6 5.525-5.24 8.737-7.24 1.275-.79 2.608-1.275 3.939-2.046 1.504-.867 6.074-2.499 8.572-1.702 1.735.555 3.258 1.83 3.857 3.493 1.16 3.212-.943 6.335-3.085 7.151-2.301.879-4.895.159-6.259-1.109-.325-.3-.714-.822-.943-1.192-.128-.198-.16-.727-.344-.854h-1.307c-.395.249-.943.089-1.447.255-.892.287-2.039.58-2.899 1.019-2.639 1.365-4.481 3.359-6.055 5.794-1.122 1.74-1.625 4.187-2.129 6.468-.127.58.147 1.416.256 1.875.21.898.069 1.918.254 2.727.026 1.702.057 3.411.082 5.112.09 1.644.199 4.295-.082 5.959v1.447c-.331 1.472-.344 3.117-.854 4.34-.568.287-.874.694-1.702.765-.631-.415-1.517-.325-1.536-1.364.306-.472.173-2.607.173-3.41 0-3.085-.428-5.972-1.192-8.343-.364-1.127-.447-2.084-.854-3.148-1.339-3.525-3.155-6.603-5.029-9.541-.624-.981-1.148-2.001-1.874-2.893-.911-1.122-1.931-2.161-2.811-3.321-.286-.255-.567-.51-.853-.764-.606-.804-1.601-1.958-2.39-2.557-.747-.56-1.492-1.198-2.129-1.874-1.32.492-3.161 3.506-3.754 4.857-.536 1.224-1.026 3.117-2.646 3.237-.184-.178-.311-.146-.426-.426-.427-.612.236-2.811.426-3.492.231-1.48.453-2.952.683-4.431v-1.325l.637-2.383v-1.658c-.14-.644-.006-1.459-.172-2.172-.401-1.722-.485-3.564-1.045-5.214-.708-2.084-1.396-4.2-2.262-6.163-.638-1.448-1.568-2.849-2.263-4.258-.153.058-.083.02-.172.09-.217.235-.255.593-.434.867-.484.745-1.287 1.733-2.001 2.255-.497.37-1.363.657-1.65 1.218-.179.331.076 1.485.172 1.912.28 1.224.019 3.116.956 3.645.777.44 2.109-.07 3.129.172.261.09.523.172.784.262.178.274.459.631.694.866.058 3.002-4.021 5.054-6.603 3.302-1.389-.944-.777-2.881-.955-4.691-1.129-.752-2.702-1.536-4.168-1.912-.874-.223-1.696.548-2.263.783-1.855.772-4.532 3.64-3.563 6.866 1.109 3.695 4.735 6.646 7.737 8.507-.025.032-.057.058-.089.09-.287.133-.955-.16-1.306-.261-1.269-.37-2.371-.631-3.474-1.046-3.416-1.275-6.584-2.893-7.992-6.163-.555-1.281-.867-3.391-.261-4.952.656-1.702 1.938-3.065 3.129-4.257 2.333-2.333 5.074-4.251 7.82-6.164 1.587-1.108 3.251-1.988 4.78-3.128.325-.243.504-.663.784-.957-.057-.153-.019-.083-.089-.172-.561-1.561-5.405-.726-7.138-.694-.045-.128-.045-.122-.09-.249.389-.306.58-.829.88-1.223.917-1.224 3.645-3.092 6.087-2.174.79.3 1.421 1.032 2.173 1.307-.083-.644-.293-1.409-.434-1.996-.216-.879-.089-1.816-.261-2.606v-1.836c-.21-1.064-.07-3.428.172-4.512.185-.828-.018-1.682.083-2.384.032-.21.28-.618.344-.854.223-.841.172-1.427.428-2.212.948-2.88 2.727-5.538 4.971-7.15 1.51-1.09 3.601-2.243 5.398-2.983.452-.185 1.02-.319 1.453-.427.408-.076.93.115 1.211-.064Zm73.159 11.938h.651c1.383 2.918 2.696 6.265 4.493 8.815.759 1.076 1.638 2.39 2.995 2.822.753.242 4.168.02 4.99-.165h2.747c1.346-.121 3.079-.211 4.411.165.414.167.829.332 1.249.497 1.135 2.142 1.071 5.329.331 7.98-.42 1.511-.477 3.009-1.249 4.156-.593.885-1.53 1.574-2.16 2.409-1.76 2.339-3.939 4.658-5.073 7.564-.402 1.027-.733 2.085-1.001 3.162-.21.867-.153 1.753-.331 2.575-.242 1.109.446 3.053.165 3.658v1.613h-.172c-.255-.332-.695-.434-1.026-.689-.682-.503-1.313-1.459-1.714-2.224-.88-1.676-1.058-3.964-2.059-5.564-.274-.44-.752-.593-1.115-.943-.28-.013-.618-.02-.772.083-1.235.471-1.573 2.167-2.058 3.428-.688 1.81-1.319 4.048-1.886 5.997-.447 1.524-.599 2.78-1.288 3.939-.153-.057-.083-.019-.172-.088-.733-.408-.746-2.034-1.026-2.914-.892-2.74-1.415-5.901-2.658-8.304-.528-1.02-.72-2.077-2.313-2.058-.121.096-.249.127-.427.171-.306.485-.784.893-1.027 1.453-.267.606-.255 1.237-.516 1.887-.593 1.472-1.14 2.925-1.969 4.111-.446.637-1.275 1.632-2.141 1.797-.058-.152-.02-.082-.09-.172.975-2.377-.165-6.832-.854-8.648-1.198-3.143-2.792-5.354-4.627-7.795-.917-1.224-2.256-2.186-3.084-3.511-.695-1.123-.816-2.493-1.199-3.939-.446-1.689-1.001-5.086-.427-7.106.134-.473.548-1.314.943-1.543 1.122-.637 6.629-.924 8.484-.516h1.389c.733.159 3.269.401 3.92.089 3.779-1.823 5.462-8.534 7.666-12.192Zm-39.209 51.516c1.365.019 2.174.235 2.818.937.663.72.548 3.122.854 4.257.905 3.352 1.784 6.444 3.072 9.369 1.179 2.676 2.804 5.175 4.352 7.495.517.777.873 1.587 1.453 2.3.3.37.747.727 1.027 1.11 4.48 6.156 10.178 11.401 16.379 15.838 1.384.987 2.754 2.121 4.181 3.065.976.644 1.996 1.065 2.989 1.702.409.261 1.925 1.535 2.219 1.447.573-.186.879-.759 1.363-1.021 1.912-1.044 3.71-2.103 5.462-3.32.409-.281.777-.771 1.192-1.019 2.607-1.575 5.048-3.614 7.17-5.705.166-.159.408-.198.599-.337.383-.287.676-.778 1.027-1.109 1.485-1.409 3.065-2.556 4.263-4.258.172-.115.344-.229.51-.338.427-.408.746-.886 1.109-1.363.096-.128.319-.141.428-.256.349-.375.547-.86.853-1.274.651-.879 1.619-1.632 2.218-2.556.172-.261.076-.51.172-.681.089.063.083.05.255.082.127-.388.471-.625.682-.937.63-.943 1.268-1.892 1.88-2.81.612-.931.988-1.894 1.536-2.895.529-.974 1.249-2.032 1.708-3.064.338-.766.408-1.441.765-2.212.178-.383.535-.937.682-1.364.701-1.989 1.199-4.047 1.708-6.131.332-1.338.146-3.053.854-4.002 1.682-2.257 5.927-.199 5.972 2.3-.364.389-1.001 2.448-1.027 3.148 2.544.618 5.654 2.696 6.654 4.857.492 1.058.587 3.11.255 4.429-.184.734-.12 1.288-.343 1.957-.612 1.867-1.358 3.627-2.39 5.112-.198.172-.402.337-.599.509-1.11 1.588-2.27 2.429-4.099 3.321-.51.248-1.67.745-2.301.338-.363-.115-.484-.306-.509-.765.413-.612.477-1.428.854-2.046 1.115-1.829 2.268-3.646 3.071-5.794.243-.655.657-2.44.173-3.148-.09-.267-.217-.376-.428-.509-.796-.657-3.562.567-3.753 1.019-.466.618-.535 1.536-.854 2.301-.791 1.912-1.555 3.843-2.39 5.793-1.868 4.36-4.347 8.623-7.17 12.091-.141.171-.128.413-.255.592-.319.446-.879.829-1.192 1.282-.676.968-1.364 2.02-2.218 2.81.261.752.134 1.587.344 2.467.306 1.294.3 2.976.599 4.339v1.365c.14.663.191 2.268 0 2.983-.554 2.071-1.632 3.881-3.136 5.022-.739.56-1.287 1.389-2.542 1.446-.255-.267-.345-.274-.338-.854.299-.471.223-1.153.421-1.701.477-1.326.911-2.798 1.274-4.258.14-.567.025-1.619-.172-1.956-.516-.899-3.703-1.912-5.169-1.957-.625.854-2.059 1.3-2.97 1.874-1.963 1.243-3.913 2.574-5.85 3.83v.165c.854.587 1.823 1.881 2.459 2.728.383.504.975.931 1.358 1.447 1.332 1.804 2.384 3.525 3.308 5.794.452 1.102.988 3.021.51 4.512-.21.65-.651 1.205-.931 1.791h-.248c-.689-1.027-1.944-1.772-2.818-2.638-2.173-2.148-4.365-4.367-6.826-6.221-.783-.592-2.447-2.556-3.409-2.728-.517.765-2.276 1.95-3.072 2.556-.134.102-.141.312-.255.427-.287.281-.695.439-1.026.681-.714.537-1.313 1.224-2.046 1.786l-.682.854c-.912.662-1.619 1.414-2.472 2.129-.772.642-2.512 2.963-3.411 3.148-.286-.593-.656-1.205-.853-1.874-.447-1.511.095-3.435.509-4.43.95-2.281 2.065-4.04 3.417-5.876.382-.522.981-.943 1.363-1.446.695-.918 1.504-1.913 2.39-2.64-.013-.082-.013-.101-.025-.178-.822-.389-1.453-1.057-2.192-1.523-1.472-.931-2.945-1.714-4.437-2.638-.815-.51-1.676-1.421-2.816-1.537-.249.198-.473.032-.854.172-.791.294-3.06.937-3.5 1.448-.529.618-.516 2.02-.255 2.982.415 1.517 1.728 4.353 1.453 5.959-.082.032-.171.058-.255.089-.834.479-2.74-1.453-3.154-1.873-1.421-1.434-3.237-4.016-2.556-7.151.025-.823.057-1.645.083-2.467.306-1.389.357-2.982.599-4.34.083-.478.312-1.409.083-1.791-.267-.784-1.153-1.338-1.619-1.956-1.211-1.613-2.549-3.18-3.67-4.857-2.895-4.321-5.023-9.293-7.254-14.308-.331-.745-1-3.473-1.452-3.83-.402-.319-.95-.39-1.453-.6-.625-.261-1.32-.522-2.219-.337-1.836 2.785 1.485 7.061 2.562 9.024.274.497 1.581 2.716.855 3.238-1.333.962-3.901-.899-4.526-1.364-2.626-1.944-4.06-4.634-5.117-8.177-.345-1.147-.874-3.327-.428-4.857.689-2.345 2.302-3.881 4.264-4.939.58-.312 2.709-.854 2.818-1.447-.313-.343-.338-.962-.511-1.447-.159-.439-.522-1.096-.599-1.536-.185-1.032 1.823-2.689 2.563-2.983.21-.095.496.013.655-.088Zm98.584.573c.07.09.032.026.082.172h-.082v-.172Zm-51.796 51.797c.006.191-.02.057.171.082v-.082h-.171Z"/></svg>