<svg viewBox="48.169 65.43 235.792 300" width="235.784" height="300" xmlns="http://www.w3.org/2000/svg"><path fill-rule="evenodd" d="M172.455 65.93c4.306.74 11.602 8.778 15.093 11.463 10.126 7.79 18.905 16.972 28.769 24.932 4.496 3.624 7.34 9.127 11.67 12.872 8.212-1.066 13.475-8.753 22.335-9.046v.403c2.311 5.807-4.632 22.534-2.82 25.536 2.686 4.289 5.37 8.578 8.049 12.872 2.81 4.733 5.026 9.812 7.643 14.277 1.635 2.78 4.452 6.142 4.825 9.853-7.852 1.81-21.742 14.481-24.751 21.516-2.708 6.344-1.194 14.878 3.021 18.698 11.073.177 19.777-5.193 26.763-9.652 2.824-1.804 4.935-3.85 9.053-4.422.067.068.135.132.201.2-.126 5.618-3.916 10.531-6.039 14.678-5.746 11.262-11.738 22.231-18.511 32.376-1.731 2.599-2.433 5.74-4.823 7.637-2.08-1.476-4.161-2.945-6.235-4.422-6.431-4.044-17.362-8.571-26.159-5.026-6.637 2.671-18.198 22.955-21.329 30.16-1.749 4.021 1.166 10.34 3.02 11.866 6.368 5.24 13.996-2.074 18.913-2.415-5.228 17.271-15.099 33.052-24.55 46.649-2.55 3.67-7.296 12.66-11.066 14.477-3.415-14.207-2.648-30.66-5.233-45.845-.604-4.692-1.209-9.384-1.814-14.073-.335-1.343-.67-2.677-1.007-4.021.478-3.239 2.337-6.802 3.625-9.448 6.356-13.087 13.519-24.119 20.723-35.793 7.528-12.197 10.8-24.665 14.288-41.624 1.038-5.029 1.432-11.885.404-17.095-1.136-5.728-.282-11.062-2.014-16.087-3.369-9.767-14.886-20.454-23.341-25.537-4.008-2.411-17.727-8.327-25.153-6.033-20.716 6.406-39.575 18.673-46.882 39.811-3.125 9.042-3.583 25.477.401 34.384 1.763 3.933 3.979 12.08 7.442 18.094 5.113 8.876 10.439 17.55 15.698 24.934 6.047 8.491 8.658 22.73 11.671 35.992 1.427 6.278 1.471 13.659 2.818 20.51.066 2.611.134 5.229.201 7.84V322.3c-.135 3.82-.267 7.643-.402 11.463-1.311 7.674-1.385 15.826-3.019 22.925-.538 2.746-1.074 5.496-1.611 8.242-.068-.132-.135-.267-.201-.401-2.148-3.886-4.297-7.774-6.437-11.665-6.582-12.062-13.139-24.209-19.717-36.597-1.727-3.258-8.541-14.421-7.644-18.296h.202c3.904.817 7.002 3.838 12.274 2.415 9.833-2.66 9.248-20.156 6.235-29.96-2.795-9.102-8.322-21.584-15.293-26.341-1.806-1.234-4.155-2.305-6.438-4.021-8.699-6.514-24.48 1.904-28.375 7.437-3.177-2.458-5.263-6.577-7.643-9.853-7.844-10.78-15.27-21.888-22.333-33.577-2.343-3.88-7.888-10.665-7.041-16.288 8.571 6.381 27.765 25.133 42.858 21.516 1.457-3.805 1.299-9.511.199-13.47-4.872-17.594-16.592-21.791-28.976-31.368 2.014-2.679 4.027-5.364 6.033-8.042 5.187-7.047 10.201-14.158 15.897-20.712 2.686-2.878 5.37-5.764 8.049-8.644 5.77-7.723 3.141-25.384 8.447-33.779 9.482-2.935 16.417 5.907 23.542 7.639 3.959-3.013 7.915-6.033 11.874-9.048 7.576-5.831 15.159-11.664 22.736-17.49 3.97-2.825 7.926-5.643 11.885-8.455Zm-3.827 76.007h.604c6.419 4.66 13.482 15.458 17.906 22.317 2.073 3.207 6.179 6.66 6.838 10.455-4.07 8.45-10.565 16.654-16.503 23.524-2.238 2.585-4.549 8.204-8.246 9.046-7.853-7.528-10.836-11.292-18.51-21.114-2.915-3.727-6.081-7.111-8.448-11.462 1.187-3.605 4.342-6.412 6.435-9.248 6.13-8.293 12.444-16.571 19.924-23.518Z" fill="#fff" paint-order="fill"/></svg>